<?xml version="1.0" encoding="UTF-8" standalone="no"?>
<!DOCTYPE svg PUBLIC "-//W3C//DTD SVG 1.1//EN"
 "http://www.w3.org/Graphics/SVG/1.1/DTD/svg11.dtd">
<!-- Generated by graphviz version 2.43.0 (0)
 -->
<!-- Title: boot_flow Pages: 1 -->
<svg width="186pt" height="212pt"
 viewBox="0.00 0.00 186.00 212.00" xmlns="http://www.w3.org/2000/svg" xmlns:xlink="http://www.w3.org/1999/xlink">
<g id="graph0" class="graph" transform="scale(1 1) rotate(0) translate(4 208)">
<title>boot_flow</title>
<polygon fill="white" stroke="transparent" points="-4,4 -4,-208 182,-208 182,4 -4,4"/>
<!-- p1 -->
<g id="node1" class="node">
<title>p1</title>
<path fill="#f1efe8" stroke="#5f5e5a" d="M165.5,-204C165.5,-204 12.5,-204 12.5,-204 6.5,-204 0.5,-198 0.5,-192 0.5,-192 0.5,-172 0.5,-172 0.5,-166 6.5,-160 12.5,-160 12.5,-160 165.5,-160 165.5,-160 171.5,-160 177.5,-166 177.5,-172 177.5,-172 177.5,-192 177.5,-192 177.5,-198 171.5,-204 165.5,-204"/>
<text text-anchor="middle" x="89" y="-191.2" font-family="Noto Sans CJK JP" font-size="11.00" fill="#2c2c2a">Phase 1</text>
<text text-anchor="middle" x="89" y="-179.2" font-family="Noto Sans CJK JP" font-size="11.00" fill="#2c2c2a">early&#45;init.el</text>
<text text-anchor="middle" x="89" y="-167.2" font-family="Noto Sans CJK JP" font-size="11.00" fill="#2c2c2a">package.el 無効化 / GC 一時緩和</text>
</g>
<!-- p2 -->
<g id="node2" class="node">
<title>p2</title>
<path fill="#f1efe8" stroke="#5f5e5a" d="M166,-124C166,-124 12,-124 12,-124 6,-124 0,-118 0,-112 0,-112 0,-92 0,-92 0,-86 6,-80 12,-80 12,-80 166,-80 166,-80 172,-80 178,-86 178,-92 178,-92 178,-112 178,-112 178,-118 172,-124 166,-124"/>
<text text-anchor="middle" x="89" y="-111.2" font-family="Noto Sans CJK JP" font-size="11.00" fill="#2c2c2a">Phase 2</text>
<text text-anchor="middle" x="89" y="-99.2" font-family="Noto Sans CJK JP" font-size="11.00" fill="#2c2c2a">init.el</text>
<text text-anchor="middle" x="89" y="-87.2" font-family="Noto Sans CJK JP" font-size="11.00" fill="#2c2c2a">straight + leaf ブートストラップ</text>
</g>
<!-- p1&#45;&gt;p2 -->
<g id="edge1" class="edge">
<title>p1&#45;&gt;p2</title>
<path fill="none" stroke="#5f5e5a" d="M89,-159.69C89,-151.8 89,-142.68 89,-134.1"/>
<polygon fill="#5f5e5a" stroke="#5f5e5a" points="92.5,-134.02 89,-124.02 85.5,-134.02 92.5,-134.02"/>
</g>
<!-- p3 -->
<g id="node3" class="node">
<title>p3</title>
<path fill="#e1f5ee" stroke="#0f6e56" d="M159.5,-44C159.5,-44 18.5,-44 18.5,-44 12.5,-44 6.5,-38 6.5,-32 6.5,-32 6.5,-12 6.5,-12 6.5,-6 12.5,0 18.5,0 18.5,0 159.5,0 159.5,0 165.5,0 171.5,-6 171.5,-12 171.5,-12 171.5,-32 171.5,-32 171.5,-38 165.5,-44 159.5,-44"/>
<text text-anchor="middle" x="89" y="-31.2" font-family="Noto Sans CJK JP" font-size="11.00" fill="#04342c">Phase 3</text>
<text text-anchor="middle" x="89" y="-19.2" font-family="Noto Sans CJK JP" font-size="11.00" fill="#04342c">modules.el</text>
<text text-anchor="middle" x="89" y="-7.2" font-family="Noto Sans CJK JP" font-size="11.00" fill="#04342c">74 モジュールを順番にロード</text>
</g>
<!-- p2&#45;&gt;p3 -->
<g id="edge2" class="edge">
<title>p2&#45;&gt;p3</title>
<path fill="none" stroke="#5f5e5a" d="M89,-79.69C89,-71.8 89,-62.68 89,-54.1"/>
<polygon fill="#5f5e5a" stroke="#5f5e5a" points="92.5,-54.02 89,-44.02 85.5,-54.02 92.5,-54.02"/>
</g>
</g>
</svg>
