<?xml version="1.0" encoding="UTF-8" standalone="no"?>
<!DOCTYPE svg PUBLIC "-//W3C//DTD SVG 1.1//EN"
 "http://www.w3.org/Graphics/SVG/1.1/DTD/svg11.dtd">
<!-- Generated by graphviz version 2.43.0 (0)
 -->
<!-- Title: boot_flow Pages: 1 -->
<svg width="3578pt" height="126pt"
 viewBox="0.00 0.00 3578.09 126.00" xmlns="http://www.w3.org/2000/svg" xmlns:xlink="http://www.w3.org/1999/xlink">
<g id="graph0" class="graph" transform="scale(1 1) rotate(0) translate(4 122)">
<title>boot_flow</title>
<g id="clust1" class="cluster">
<title>cluster_p1</title>
<polygon fill="#ede9fe" stroke="#6d28d9" points="8,-17 8,-101 1145,-101 1145,-17 8,-17"/>
<text text-anchor="middle" x="576.5" y="-88.2" font-family="Times,serif" font-size="11.00">Phase 1</text>
<text text-anchor="middle" x="576.5" y="-76.2" font-family="Times,serif" font-size="11.00">early&#45;init.el</text>
</g>
<g id="clust2" class="cluster">
<title>cluster_p2</title>
<polygon fill="#dbeafe" stroke="#1d4ed8" points="1173,-16 1173,-102 2470,-102 2470,-16 1173,-16"/>
<text text-anchor="middle" x="1821.5" y="-89.2" font-family="Times,serif" font-size="11.00">Phase 2</text>
<text text-anchor="middle" x="1821.5" y="-77.2" font-family="Times,serif" font-size="11.00">init.el</text>
</g>
<g id="clust3" class="cluster">
<title>cluster_p3</title>
<polygon fill="#dbeafe" stroke="#0369a1" points="2523,-8 2523,-110 3562.09,-110 3562.09,-8 2523,-8"/>
<text text-anchor="middle" x="3042.55" y="-97.2" font-family="Times,serif" font-size="11.00">Phase 3</text>
<text text-anchor="middle" x="3042.55" y="-85.2" font-family="Times,serif" font-size="11.00">modules.el</text>
</g>
<!-- p1a -->
<g id="node1" class="node">
<title>p1a</title>
<path fill="#6d28d9" stroke="black" d="M126,-61C126,-61 28,-61 28,-61 22,-61 16,-55 16,-49 16,-49 16,-37 16,-37 16,-31 22,-25 28,-25 28,-25 126,-25 126,-25 132,-25 138,-31 138,-37 138,-37 138,-49 138,-49 138,-55 132,-61 126,-61"/>
<text text-anchor="middle" x="77" y="-40.2" font-family="Helvetica,sans-Serif" font-size="11.00" fill="white">§1 package.el off</text>
</g>
<!-- p1b -->
<g id="node2" class="node">
<title>p1b</title>
<path fill="#7c3aed" stroke="black" d="M297,-61C297,-61 187,-61 187,-61 181,-61 175,-55 175,-49 175,-49 175,-37 175,-37 175,-31 181,-25 187,-25 187,-25 297,-25 297,-25 303,-25 309,-31 309,-37 309,-37 309,-49 309,-49 309,-55 303,-61 297,-61"/>
<text text-anchor="middle" x="242" y="-40.2" font-family="Helvetica,sans-Serif" font-size="11.00" fill="white">§2&#45;3 dirs + straight</text>
</g>
<!-- p1a&#45;&gt;p1b -->
<g id="edge1" class="edge">
<title>p1a&#45;&gt;p1b</title>
<path fill="none" stroke="#6d28d9" d="M138.44,-43C138.44,-43 164.97,-43 164.97,-43"/>
<polygon fill="#6d28d9" stroke="#6d28d9" points="164.97,-46.5 174.97,-43 164.97,-39.5 164.97,-46.5"/>
</g>
<!-- p1c -->
<g id="node3" class="node">
<title>p1c</title>
<path fill="#7c3aed" stroke="black" d="M509,-61C509,-61 358,-61 358,-61 352,-61 346,-55 346,-49 346,-49 346,-37 346,-37 346,-31 352,-25 358,-25 358,-25 509,-25 509,-25 515,-25 521,-31 521,-37 521,-37 521,-49 521,-49 521,-55 515,-61 509,-61"/>
<text text-anchor="middle" x="433.5" y="-40.2" font-family="Helvetica,sans-Serif" font-size="11.00" fill="white">§4&#45;5 macOS + nativecomp</text>
</g>
<!-- p1b&#45;&gt;p1c -->
<g id="edge2" class="edge">
<title>p1b&#45;&gt;p1c</title>
<path fill="none" stroke="#6d28d9" d="M309.25,-43C309.25,-43 335.91,-43 335.91,-43"/>
<polygon fill="#6d28d9" stroke="#6d28d9" points="335.91,-46.5 345.91,-43 335.91,-39.5 335.91,-46.5"/>
</g>
<!-- p1d -->
<g id="node4" class="node">
<title>p1d</title>
<path fill="#8b5cf6" stroke="black" d="M706,-61C706,-61 570,-61 570,-61 564,-61 558,-55 558,-49 558,-49 558,-37 558,-37 558,-31 564,-25 570,-25 570,-25 706,-25 706,-25 712,-25 718,-31 718,-37 718,-37 718,-49 718,-49 718,-55 712,-61 706,-61"/>
<text text-anchor="middle" x="638" y="-40.2" font-family="Helvetica,sans-Serif" font-size="11.00" fill="white">§6&#45;7 no&#45;littering compat</text>
</g>
<!-- p1c&#45;&gt;p1d -->
<g id="edge3" class="edge">
<title>p1c&#45;&gt;p1d</title>
<path fill="none" stroke="#6d28d9" d="M521.12,-43C521.12,-43 547.68,-43 547.68,-43"/>
<polygon fill="#6d28d9" stroke="#6d28d9" points="547.68,-46.5 557.68,-43 547.68,-39.5 547.68,-46.5"/>
</g>
<!-- p1e -->
<g id="node5" class="node">
<title>p1e</title>
<path fill="#8b5cf6" stroke="black" d="M838,-61C838,-61 767,-61 767,-61 761,-61 755,-55 755,-49 755,-49 755,-37 755,-37 755,-31 761,-25 767,-25 767,-25 838,-25 838,-25 844,-25 850,-31 850,-37 850,-37 850,-49 850,-49 850,-55 844,-61 838,-61"/>
<text text-anchor="middle" x="802.5" y="-40.2" font-family="Helvetica,sans-Serif" font-size="11.00" fill="white">§8 GC guard</text>
</g>
<!-- p1d&#45;&gt;p1e -->
<g id="edge4" class="edge">
<title>p1d&#45;&gt;p1e</title>
<path fill="none" stroke="#6d28d9" d="M718.32,-43C718.32,-43 744.56,-43 744.56,-43"/>
<polygon fill="#6d28d9" stroke="#6d28d9" points="744.56,-46.5 754.56,-43 744.56,-39.5 744.56,-46.5"/>
</g>
<!-- p1f -->
<g id="node6" class="node">
<title>p1f</title>
<path fill="#8b5cf6" stroke="black" d="M994,-61C994,-61 899,-61 899,-61 893,-61 887,-55 887,-49 887,-49 887,-37 887,-37 887,-31 893,-25 899,-25 899,-25 994,-25 994,-25 1000,-25 1006,-31 1006,-37 1006,-37 1006,-49 1006,-49 1006,-55 1000,-61 994,-61"/>
<text text-anchor="middle" x="946.5" y="-40.2" font-family="Helvetica,sans-Serif" font-size="11.00" fill="white">§9 backup policy</text>
</g>
<!-- p1e&#45;&gt;p1f -->
<g id="edge5" class="edge">
<title>p1e&#45;&gt;p1f</title>
<path fill="none" stroke="#6d28d9" d="M850.05,-43C850.05,-43 876.93,-43 876.93,-43"/>
<polygon fill="#6d28d9" stroke="#6d28d9" points="876.93,-46.5 886.93,-43 876.93,-39.5 876.93,-46.5"/>
</g>
<!-- p1g -->
<g id="node7" class="node">
<title>p1g</title>
<path fill="#8b5cf6" stroke="black" d="M1125,-61C1125,-61 1055,-61 1055,-61 1049,-61 1043,-55 1043,-49 1043,-49 1043,-37 1043,-37 1043,-31 1049,-25 1055,-25 1055,-25 1125,-25 1125,-25 1131,-25 1137,-31 1137,-37 1137,-37 1137,-49 1137,-49 1137,-55 1131,-61 1125,-61"/>
<text text-anchor="middle" x="1090" y="-40.2" font-family="Helvetica,sans-Serif" font-size="11.00" fill="white">§10 early UI</text>
</g>
<!-- p1f&#45;&gt;p1g -->
<g id="edge6" class="edge">
<title>p1f&#45;&gt;p1g</title>
<path fill="none" stroke="#6d28d9" d="M1006.11,-43C1006.11,-43 1032.59,-43 1032.59,-43"/>
<polygon fill="#6d28d9" stroke="#6d28d9" points="1032.59,-46.5 1042.59,-43 1032.59,-39.5 1032.59,-46.5"/>
</g>
<!-- p2a -->
<g id="node8" class="node">
<title>p2a</title>
<path fill="#1d4ed8" stroke="black" d="M1362,-61C1362,-61 1193,-61 1193,-61 1187,-61 1181,-55 1181,-49 1181,-49 1181,-37 1181,-37 1181,-31 1187,-25 1193,-25 1193,-25 1362,-25 1362,-25 1368,-25 1374,-31 1374,-37 1374,-37 1374,-49 1374,-49 1374,-55 1368,-61 1362,-61"/>
<text text-anchor="middle" x="1277.5" y="-40.2" font-family="Helvetica,sans-Serif" font-size="11.00" fill="white">§1&#45;2 URL + straight bootstrap</text>
</g>
<!-- p1g&#45;&gt;p2a -->
<g id="edge18" class="edge">
<title>p1g&#45;&gt;p2a</title>
<path fill="none" stroke="#475569" stroke-dasharray="5,2" d="M1137.31,-43C1137.31,-43 1170.81,-43 1170.81,-43"/>
<polygon fill="#475569" stroke="#475569" points="1170.81,-46.5 1180.81,-43 1170.81,-39.5 1170.81,-46.5"/>
<text text-anchor="middle" x="1159" y="-45.8" font-family="Helvetica,sans-Serif" font-size="9.00">→</text>
</g>
<!-- p2b -->
<g id="node9" class="node">
<title>p2b</title>
<path fill="#1e40af" stroke="black" d="M1568,-61C1568,-61 1423,-61 1423,-61 1417,-61 1411,-55 1411,-49 1411,-49 1411,-37 1411,-37 1411,-31 1417,-25 1423,-25 1423,-25 1568,-25 1568,-25 1574,-25 1580,-31 1580,-37 1580,-37 1580,-49 1580,-49 1580,-55 1574,-61 1568,-61"/>
<text text-anchor="middle" x="1495.5" y="-40.2" font-family="Helvetica,sans-Serif" font-size="11.00" fill="white">§3&#45;4 leaf + Org bootstrap</text>
</g>
<!-- p2a&#45;&gt;p2b -->
<g id="edge7" class="edge">
<title>p2a&#45;&gt;p2b</title>
<path fill="none" stroke="#1d4ed8" d="M1374.07,-43C1374.07,-43 1400.97,-43 1400.97,-43"/>
<polygon fill="#1d4ed8" stroke="#1d4ed8" points="1400.97,-46.5 1410.97,-43 1400.97,-39.5 1400.97,-46.5"/>
</g>
<!-- p2c -->
<g id="node10" class="node">
<title>p2c</title>
<path fill="#1e40af" stroke="black" d="M1756,-62C1756,-62 1629,-62 1629,-62 1623,-62 1617,-56 1617,-50 1617,-50 1617,-36 1617,-36 1617,-30 1623,-24 1629,-24 1629,-24 1756,-24 1756,-24 1762,-24 1768,-30 1768,-36 1768,-36 1768,-50 1768,-50 1768,-56 1762,-62 1756,-62"/>
<text text-anchor="middle" x="1692.5" y="-46.2" font-family="Helvetica,sans-Serif" font-size="11.00" fill="white">§5 macOS env import</text>
<text text-anchor="middle" x="1692.5" y="-34.2" font-family="Helvetica,sans-Serif" font-size="11.00" fill="white">&#39;(&quot;&#45;l&quot;) PATH LANG only</text>
</g>
<!-- p2b&#45;&gt;p2c -->
<g id="edge8" class="edge">
<title>p2b&#45;&gt;p2c</title>
<path fill="none" stroke="#1d4ed8" d="M1580.19,-43C1580.19,-43 1606.89,-43 1606.89,-43"/>
<polygon fill="#1d4ed8" stroke="#1d4ed8" points="1606.89,-46.5 1616.89,-43 1606.89,-39.5 1606.89,-46.5"/>
</g>
<!-- p2d -->
<g id="node11" class="node">
<title>p2d</title>
<path fill="#2563eb" stroke="black" d="M1919,-62C1919,-62 1817,-62 1817,-62 1811,-62 1805,-56 1805,-50 1805,-50 1805,-36 1805,-36 1805,-30 1811,-24 1817,-24 1817,-24 1919,-24 1919,-24 1925,-24 1931,-30 1931,-36 1931,-36 1931,-50 1931,-50 1931,-56 1925,-62 1919,-62"/>
<text text-anchor="middle" x="1868" y="-46.2" font-family="Helvetica,sans-Serif" font-size="11.00" fill="white">§6&#45;7 Perf + GCMH</text>
<text text-anchor="middle" x="1868" y="-34.2" font-family="Helvetica,sans-Serif" font-size="11.00" fill="white">128MiB threshold</text>
</g>
<!-- p2c&#45;&gt;p2d -->
<g id="edge9" class="edge">
<title>p2c&#45;&gt;p2d</title>
<path fill="none" stroke="#1d4ed8" d="M1768.2,-43C1768.2,-43 1794.92,-43 1794.92,-43"/>
<polygon fill="#1d4ed8" stroke="#1d4ed8" points="1794.92,-46.5 1804.92,-43 1794.92,-39.5 1794.92,-46.5"/>
</g>
<!-- p2e -->
<g id="node12" class="node">
<title>p2e</title>
<path fill="#2563eb" stroke="black" d="M2074,-61C2074,-61 1980,-61 1980,-61 1974,-61 1968,-55 1968,-49 1968,-49 1968,-37 1968,-37 1968,-31 1974,-25 1980,-25 1980,-25 2074,-25 2074,-25 2080,-25 2086,-31 2086,-37 2086,-37 2086,-49 2086,-49 2086,-55 2080,-61 2074,-61"/>
<text text-anchor="middle" x="2027" y="-40.2" font-family="Helvetica,sans-Serif" font-size="11.00" fill="white">§8 built&#45;in policy</text>
</g>
<!-- p2d&#45;&gt;p2e -->
<g id="edge10" class="edge">
<title>p2d&#45;&gt;p2e</title>
<path fill="none" stroke="#1d4ed8" d="M1931.3,-43C1931.3,-43 1957.8,-43 1957.8,-43"/>
<polygon fill="#1d4ed8" stroke="#1d4ed8" points="1957.8,-46.5 1967.8,-43 1957.8,-39.5 1957.8,-46.5"/>
</g>
<!-- p2f -->
<g id="node13" class="node">
<title>p2f</title>
<path fill="#3b82f6" stroke="black" d="M2248,-62C2248,-62 2135,-62 2135,-62 2129,-62 2123,-56 2123,-50 2123,-50 2123,-36 2123,-36 2123,-30 2129,-24 2135,-24 2135,-24 2248,-24 2248,-24 2254,-24 2260,-30 2260,-36 2260,-36 2260,-50 2260,-50 2260,-56 2254,-62 2248,-62"/>
<text text-anchor="middle" x="2191.5" y="-46.2" font-family="Helvetica,sans-Serif" font-size="11.00" fill="white">§9 personal overlay</text>
<text text-anchor="middle" x="2191.5" y="-34.2" font-family="Helvetica,sans-Serif" font-size="11.00" fill="white">user.el + ac1965.el</text>
</g>
<!-- p2e&#45;&gt;p2f -->
<g id="edge11" class="edge">
<title>p2e&#45;&gt;p2f</title>
<path fill="none" stroke="#1d4ed8" d="M2086.39,-43C2086.39,-43 2112.97,-43 2112.97,-43"/>
<polygon fill="#1d4ed8" stroke="#1d4ed8" points="2112.97,-46.5 2122.97,-43 2112.97,-39.5 2112.97,-46.5"/>
</g>
<!-- p2g -->
<g id="node14" class="node">
<title>p2g</title>
<path fill="#3b82f6" stroke="black" d="M2450,-61C2450,-61 2309,-61 2309,-61 2303,-61 2297,-55 2297,-49 2297,-49 2297,-37 2297,-37 2297,-31 2303,-25 2309,-25 2309,-25 2450,-25 2450,-25 2456,-25 2462,-31 2462,-37 2462,-37 2462,-49 2462,-49 2462,-55 2456,-61 2450,-61"/>
<text text-anchor="middle" x="2379.5" y="-40.2" font-family="Helvetica,sans-Serif" font-size="11.00" fill="white">§10 → (require &#39;modules)</text>
</g>
<!-- p2f&#45;&gt;p2g -->
<g id="edge12" class="edge">
<title>p2f&#45;&gt;p2g</title>
<path fill="none" stroke="#1d4ed8" d="M2260.17,-43C2260.17,-43 2286.96,-43 2286.96,-43"/>
<polygon fill="#1d4ed8" stroke="#1d4ed8" points="2286.96,-46.5 2296.96,-43 2286.96,-39.5 2286.96,-46.5"/>
</g>
<!-- p3a -->
<g id="node15" class="node">
<title>p3a</title>
<path fill="#0369a1" stroke="black" d="M2655,-62C2655,-62 2543,-62 2543,-62 2537,-62 2531,-56 2531,-50 2531,-50 2531,-36 2531,-36 2531,-30 2537,-24 2543,-24 2543,-24 2655,-24 2655,-24 2661,-24 2667,-30 2667,-36 2667,-36 2667,-50 2667,-50 2667,-56 2661,-62 2655,-62"/>
<text text-anchor="middle" x="2599" y="-46.2" font-family="Helvetica,sans-Serif" font-size="11.00" fill="white">iterate my:modules</text>
<text text-anchor="middle" x="2599" y="-34.2" font-family="Helvetica,sans-Serif" font-size="11.00" fill="white">(75 canonical)</text>
</g>
<!-- p2g&#45;&gt;p3a -->
<g id="edge19" class="edge">
<title>p2g&#45;&gt;p3a</title>
<path fill="none" stroke="#475569" stroke-dasharray="5,2" d="M2462.17,-43C2462.17,-43 2520.72,-43 2520.72,-43"/>
<polygon fill="#475569" stroke="#475569" points="2520.72,-46.5 2530.72,-43 2520.72,-39.5 2520.72,-46.5"/>
<text text-anchor="middle" x="2496.5" y="-45.8" font-family="Helvetica,sans-Serif" font-size="9.00">require</text>
</g>
<!-- p3b -->
<g id="node16" class="node">
<title>p3b</title>
<path fill="#075985" stroke="black" d="M2800,-62C2800,-62 2716,-62 2716,-62 2710,-62 2704,-56 2704,-50 2704,-50 2704,-36 2704,-36 2704,-30 2710,-24 2716,-24 2716,-24 2800,-24 2800,-24 2806,-24 2812,-30 2812,-36 2812,-36 2812,-50 2812,-50 2812,-56 2806,-62 2800,-62"/>
<text text-anchor="middle" x="2758" y="-46.2" font-family="Helvetica,sans-Serif" font-size="11.00" fill="white">condition&#45;case</text>
<text text-anchor="middle" x="2758" y="-34.2" font-family="Helvetica,sans-Serif" font-size="11.00" fill="white">per module</text>
</g>
<!-- p3a&#45;&gt;p3b -->
<g id="edge13" class="edge">
<title>p3a&#45;&gt;p3b</title>
<path fill="none" stroke="#0369a1" d="M2667.35,-43C2667.35,-43 2693.61,-43 2693.61,-43"/>
<polygon fill="#0369a1" stroke="#0369a1" points="2693.61,-46.5 2703.61,-43 2693.61,-39.5 2693.61,-46.5"/>
</g>
<!-- p3c -->
<g id="node17" class="node">
<title>p3c</title>
<path fill="#0284c7" stroke="black" d="M2996,-62C2996,-62 2861,-62 2861,-62 2855,-62 2849,-56 2849,-50 2849,-50 2849,-36 2849,-36 2849,-30 2855,-24 2861,-24 2861,-24 2996,-24 2996,-24 3002,-24 3008,-30 3008,-36 3008,-36 3008,-50 3008,-50 3008,-56 3002,-62 2996,-62"/>
<text text-anchor="middle" x="2928.5" y="-46.2" font-family="Helvetica,sans-Serif" font-size="11.00" fill="white">skip check</text>
<text text-anchor="middle" x="2928.5" y="-34.2" font-family="Helvetica,sans-Serif" font-size="11.00" fill="white">memq my:modules&#45;skip</text>
</g>
<!-- p3b&#45;&gt;p3c -->
<g id="edge14" class="edge">
<title>p3b&#45;&gt;p3c</title>
<path fill="none" stroke="#0369a1" d="M2812.42,-43C2812.42,-43 2838.81,-43 2838.81,-43"/>
<polygon fill="#0369a1" stroke="#0369a1" points="2838.81,-46.5 2848.81,-43 2838.81,-39.5 2838.81,-46.5"/>
</g>
<!-- p3d -->
<g id="node18" class="node">
<title>p3d</title>
<path fill="#0284c7" stroke="black" d="M3152,-62C3152,-62 3057,-62 3057,-62 3051,-62 3045,-56 3045,-50 3045,-50 3045,-36 3045,-36 3045,-30 3051,-24 3057,-24 3057,-24 3152,-24 3152,-24 3158,-24 3164,-30 3164,-36 3164,-36 3164,-50 3164,-50 3164,-56 3158,-62 3152,-62"/>
<text text-anchor="middle" x="3104.5" y="-46.2" font-family="Helvetica,sans-Serif" font-size="11.00" fill="white">verbose timing</text>
<text text-anchor="middle" x="3104.5" y="-34.2" font-family="Helvetica,sans-Serif" font-size="11.00" fill="white">float&#45;time %&#45;24s</text>
</g>
<!-- p3c&#45;&gt;p3d -->
<g id="edge15" class="edge">
<title>p3c&#45;&gt;p3d</title>
<path fill="none" stroke="#0369a1" d="M3008,-43C3008,-43 3034.86,-43 3034.86,-43"/>
<polygon fill="#0369a1" stroke="#0369a1" points="3034.86,-46.5 3044.86,-43 3034.86,-39.5 3034.86,-46.5"/>
</g>
<!-- p3e -->
<g id="node19" class="node">
<title>p3e</title>
<path fill="#0ea5e9" stroke="black" d="M3317,-62C3317,-62 3213,-62 3213,-62 3207,-62 3201,-56 3201,-50 3201,-50 3201,-36 3201,-36 3201,-30 3207,-24 3213,-24 3213,-24 3317,-24 3317,-24 3323,-24 3329,-30 3329,-36 3329,-36 3329,-50 3329,-50 3329,-56 3323,-62 3317,-62"/>
<text text-anchor="middle" x="3265" y="-46.2" font-family="Helvetica,sans-Serif" font-size="11.00" fill="white">append extras</text>
<text text-anchor="middle" x="3265" y="-34.2" font-family="Helvetica,sans-Serif" font-size="11.00" fill="white">my:modules&#45;extra</text>
</g>
<!-- p3d&#45;&gt;p3e -->
<g id="edge16" class="edge">
<title>p3d&#45;&gt;p3e</title>
<path fill="none" stroke="#0369a1" d="M3164.26,-43C3164.26,-43 3190.88,-43 3190.88,-43"/>
<polygon fill="#0369a1" stroke="#0369a1" points="3190.88,-46.5 3200.88,-43 3190.88,-39.5 3190.88,-46.5"/>
</g>
<!-- p3f -->
<g id="node20" class="node">
<title>p3f</title>
<ellipse fill="#0d9488" stroke="black" cx="3460.05" cy="-43" rx="94.09" ry="26.74"/>
<text text-anchor="middle" x="3460.05" y="-46.2" font-family="Helvetica,sans-Serif" font-size="11.00" fill="white">Emacs ready</text>
<text text-anchor="middle" x="3460.05" y="-34.2" font-family="Helvetica,sans-Serif" font-size="11.00" fill="white">after&#45;init&#45;hook fires</text>
</g>
<!-- p3e&#45;&gt;p3f -->
<g id="edge17" class="edge">
<title>p3e&#45;&gt;p3f</title>
<path fill="none" stroke="#0369a1" d="M3329.14,-43C3329.14,-43 3355.85,-43 3355.85,-43"/>
<polygon fill="#0369a1" stroke="#0369a1" points="3355.85,-46.5 3365.85,-43 3355.85,-39.5 3355.85,-46.5"/>
</g>
</g>
</svg>
