<?xml version="1.0" encoding="UTF-8" standalone="no"?>
<!DOCTYPE svg PUBLIC "-//W3C//DTD SVG 1.1//EN"
 "http://www.w3.org/Graphics/SVG/1.1/DTD/svg11.dtd">
<!-- Generated by graphviz version 15.1.1 (20260805.0921)
 -->
<!-- Title: condition_case Pages: 1 -->
<svg width="315pt" height="290pt"
 viewBox="0.00 0.00 315.00 290.00" xmlns="http://www.w3.org/2000/svg" xmlns:xlink="http://www.w3.org/1999/xlink">
<g id="graph0" class="graph" transform="scale(1 1) rotate(0) translate(4 286)">
<title>condition_case</title>
<polygon fill="white" stroke="none" points="-4,4 -4,-286 310.57,-286 310.57,4 -4,4"/>
<!-- start -->
<g id="node1" class="node">
<title>start</title>
<path fill="#f1efe8" stroke="#5f5e5a" d="M261.5,-282C261.5,-282 178,-282 178,-282 172,-282 166,-276 166,-270 166,-270 166,-251.5 166,-251.5 166,-245.5 172,-239.5 178,-239.5 178,-239.5 261.5,-239.5 261.5,-239.5 267.5,-239.5 273.5,-245.5 273.5,-251.5 273.5,-251.5 273.5,-270 273.5,-270 273.5,-276 267.5,-282 261.5,-282"/>
<text xml:space="preserve" text-anchor="middle" x="219.75" y="-267.55" font-family="Noto Sans CJK JP" font-size="11.00" fill="#2c2c2a">my/modules&#45;load</text>
<text xml:space="preserve" text-anchor="middle" x="219.75" y="-250.3" font-family="Noto Sans CJK JP" font-size="11.00" fill="#2c2c2a">(require mod)</text>
</g>
<!-- cc -->
<g id="node2" class="node">
<title>cc</title>
<path fill="#f1efe8" stroke="#5f5e5a" d="M253.62,-202.5C253.62,-202.5 185.88,-202.5 185.88,-202.5 179.88,-202.5 173.88,-196.5 173.88,-190.5 173.88,-190.5 173.88,-178.5 173.88,-178.5 173.88,-172.5 179.88,-166.5 185.88,-166.5 185.88,-166.5 253.62,-166.5 253.62,-166.5 259.62,-166.5 265.62,-172.5 265.62,-178.5 265.62,-178.5 265.62,-190.5 265.62,-190.5 265.62,-196.5 259.62,-202.5 253.62,-202.5"/>
<text xml:space="preserve" text-anchor="middle" x="219.75" y="-182.68" font-family="Noto Sans CJK JP" font-size="11.00" fill="#2c2c2a">condition&#45;case</text>
</g>
<!-- start&#45;&gt;cc -->
<g id="edge1" class="edge">
<title>start&#45;&gt;cc</title>
<path fill="none" stroke="#5f5e5a" d="M219.75,-239.07C219.75,-231.25 219.75,-222.22 219.75,-213.82"/>
<polygon fill="#5f5e5a" stroke="#5f5e5a" points="223.25,-214.08 219.75,-204.08 216.25,-214.08 223.25,-214.08"/>
</g>
<!-- err -->
<g id="node3" class="node">
<title>err</title>
<path fill="#faeeda" stroke="#854f0b" d="M137.5,-115.5C137.5,-115.5 12,-115.5 12,-115.5 6,-115.5 0,-109.5 0,-103.5 0,-103.5 0,-85 0,-85 0,-79 6,-73 12,-73 12,-73 137.5,-73 137.5,-73 143.5,-73 149.5,-79 149.5,-85 149.5,-85 149.5,-103.5 149.5,-103.5 149.5,-109.5 143.5,-115.5 137.5,-115.5"/>
<text xml:space="preserve" text-anchor="middle" x="74.75" y="-101.05" font-family="Noto Sans CJK JP" font-size="11.00" fill="#633806">error</text>
<text xml:space="preserve" text-anchor="middle" x="74.75" y="-83.8" font-family="Noto Sans CJK JP" font-size="11.00" fill="#633806">ログして次のモジュールへ</text>
</g>
<!-- cc&#45;&gt;err -->
<g id="edge2" class="edge">
<title>cc&#45;&gt;err</title>
<path fill="none" stroke="#5f5e5a" d="M191.1,-166.06C170.38,-153.45 141.99,-136.17 118.45,-121.84"/>
<polygon fill="#5f5e5a" stroke="#5f5e5a" points="120.34,-118.9 109.98,-116.69 116.7,-124.88 120.34,-118.9"/>
<text xml:space="preserve" text-anchor="middle" x="171.49" y="-139" font-family="Noto Sans CJK JP" font-size="10.00" fill="#5f5e5a">error</text>
</g>
<!-- quit -->
<g id="node4" class="node">
<title>quit</title>
<path fill="#fcebeb" stroke="#a32d2d" d="M260.38,-115.5C260.38,-115.5 179.12,-115.5 179.12,-115.5 173.12,-115.5 167.12,-109.5 167.12,-103.5 167.12,-103.5 167.12,-85 167.12,-85 167.12,-79 173.12,-73 179.12,-73 179.12,-73 260.38,-73 260.38,-73 266.38,-73 272.38,-79 272.38,-85 272.38,-85 272.38,-103.5 272.38,-103.5 272.38,-109.5 266.38,-115.5 260.38,-115.5"/>
<text xml:space="preserve" text-anchor="middle" x="219.75" y="-101.05" font-family="Noto Sans CJK JP" font-size="11.00" fill="#501313">quit (C&#45;g)</text>
<text xml:space="preserve" text-anchor="middle" x="219.75" y="-83.8" font-family="Noto Sans CJK JP" font-size="11.00" fill="#501313">伝播 = 起動を中断</text>
</g>
<!-- cc&#45;&gt;quit -->
<g id="edge3" class="edge">
<title>cc&#45;&gt;quit</title>
<path fill="none" stroke="#5f5e5a" d="M219.75,-166.06C219.75,-154.99 219.75,-140.32 219.75,-127.2"/>
<polygon fill="#5f5e5a" stroke="#5f5e5a" points="223.25,-127.26 219.75,-117.26 216.25,-127.26 223.25,-127.26"/>
<text xml:space="preserve" text-anchor="middle" x="229.12" y="-139" font-family="Noto Sans CJK JP" font-size="10.00" fill="#5f5e5a">quit</text>
</g>
<!-- next -->
<g id="node5" class="node">
<title>next</title>
<path fill="#e1f5ee" stroke="#0f6e56" d="M232.38,-36C232.38,-36 151.12,-36 151.12,-36 145.12,-36 139.12,-30 139.12,-24 139.12,-24 139.12,-12 139.12,-12 139.12,-6 145.12,0 151.12,0 151.12,0 232.38,0 232.38,0 238.38,0 244.38,-6 244.38,-12 244.38,-12 244.38,-24 244.38,-24 244.38,-30 238.38,-36 232.38,-36"/>
<text xml:space="preserve" text-anchor="middle" x="191.75" y="-16.18" font-family="Noto Sans CJK JP" font-size="11.00" fill="#04342c">次のモジュールへ</text>
</g>
<!-- cc&#45;&gt;next -->
<g id="edge4" class="edge">
<title>cc&#45;&gt;next</title>
<path fill="none" stroke="#5f5e5a" d="M241.42,-166.25C266,-144.49 300.39,-105.92 281.75,-73 274.38,-59.99 262.49,-49.77 249.72,-41.89"/>
<polygon fill="#5f5e5a" stroke="#5f5e5a" points="251.6,-38.93 241.17,-37.05 248.16,-45.02 251.6,-38.93"/>
<text xml:space="preserve" text-anchor="middle" x="296.82" y="-92.25" font-family="Noto Sans CJK JP" font-size="10.00" fill="#5f5e5a">成功</text>
</g>
<!-- err&#45;&gt;next -->
<g id="edge5" class="edge">
<title>err&#45;&gt;next</title>
<path fill="none" stroke="#5f5e5a" d="M107.34,-72.57C122.1,-63.2 139.6,-52.09 154.84,-42.42"/>
<polygon fill="#5f5e5a" stroke="#5f5e5a" points="156.63,-45.43 163.2,-37.12 152.88,-39.52 156.63,-45.43"/>
</g>
</g>
</svg>
