<?xml version="1.0" encoding="UTF-8" standalone="no"?>
<!DOCTYPE svg PUBLIC "-//W3C//DTD SVG 1.1//EN"
 "http://www.w3.org/Graphics/SVG/1.1/DTD/svg11.dtd">
<!-- Generated by graphviz version 2.43.0 (0)
 -->
<!-- Title: condition_case Pages: 1 -->
<svg width="426pt" height="497pt"
 viewBox="0.00 0.00 425.50 497.00" xmlns="http://www.w3.org/2000/svg" xmlns:xlink="http://www.w3.org/1999/xlink">
<g id="graph0" class="graph" transform="scale(1 1) rotate(0) translate(4 493)">
<title>condition_case</title>
<!-- loop -->
<g id="node1" class="node">
<title>loop</title>
<polygon fill="#0d1b2a" stroke="black" points="362,-489 219,-489 219,-448 362,-448 362,-489"/>
<text text-anchor="middle" x="290.5" y="-477" font-family="monospace" font-size="10.00" fill="#14b8a6">(dolist (feature</text>
<text text-anchor="middle" x="290.5" y="-466" font-family="monospace" font-size="10.00" fill="#14b8a6"> &#160;(append my:modules</text>
<text text-anchor="middle" x="290.5" y="-455" font-family="monospace" font-size="10.00" fill="#14b8a6"> &#160;my:modules&#45;extra)))</text>
</g>
<!-- skip -->
<g id="node2" class="node">
<title>skip</title>
<polygon fill="#f59e0b" stroke="black" points="204.5,-411 91.5,-381 204.5,-351 317.5,-381 204.5,-411"/>
<text text-anchor="middle" x="204.5" y="-384" font-family="monospace" font-size="10.00" fill="white">memq feature</text>
<text text-anchor="middle" x="204.5" y="-373" font-family="monospace" font-size="10.00" fill="white">my:modules&#45;skip?</text>
</g>
<!-- loop&#45;&gt;skip -->
<g id="edge1" class="edge">
<title>loop&#45;&gt;skip</title>
<path fill="none" stroke="black" d="M270.55,-447.67C259.95,-437.13 246.7,-423.95 234.85,-412.17"/>
<polygon fill="black" stroke="black" points="237.25,-409.62 227.69,-405.05 232.31,-414.59 237.25,-409.62"/>
</g>
<!-- skip_yes -->
<g id="node3" class="node">
<title>skip_yes</title>
<polygon fill="#d1fae5" stroke="black" points="106,-305 11,-305 11,-269 106,-269 106,-305"/>
<text text-anchor="middle" x="58.5" y="-290" font-family="monospace" font-size="10.00" fill="#065f46">skip silently</text>
<text text-anchor="middle" x="58.5" y="-279" font-family="monospace" font-size="10.00" fill="#065f46">→ next module</text>
</g>
<!-- skip&#45;&gt;skip_yes -->
<g id="edge2" class="edge">
<title>skip&#45;&gt;skip_yes</title>
<path fill="none" stroke="black" d="M172.1,-359.58C149.15,-345.12 118.37,-325.72 94.63,-310.77"/>
<polygon fill="black" stroke="black" points="96.23,-307.64 85.91,-305.27 92.5,-313.56 96.23,-307.64"/>
<text text-anchor="middle" x="135.5" y="-325.8" font-family="Helvetica,sans-Serif" font-size="9.00">YES</text>
</g>
<!-- t0 -->
<g id="node4" class="node">
<title>t0</title>
<polygon fill="#dbeafe" stroke="black" points="285,-305 124,-305 124,-269 285,-269 285,-305"/>
<text text-anchor="middle" x="204.5" y="-290" font-family="monospace" font-size="10.00" fill="#1e40af">when my:modules&#45;verbose</text>
<text text-anchor="middle" x="204.5" y="-279" font-family="monospace" font-size="10.00" fill="#1e40af">record t0=(current&#45;time)</text>
</g>
<!-- skip&#45;&gt;t0 -->
<g id="edge3" class="edge">
<title>skip&#45;&gt;t0</title>
<path fill="none" stroke="black" d="M204.5,-350.89C204.5,-339.48 204.5,-326.46 204.5,-315.24"/>
<polygon fill="black" stroke="black" points="208,-315.14 204.5,-305.14 201,-315.14 208,-315.14"/>
<text text-anchor="middle" x="211.5" y="-325.8" font-family="Helvetica,sans-Serif" font-size="9.00">NO</text>
</g>
<!-- cc -->
<g id="node5" class="node">
<title>cc</title>
<polygon fill="#0d1b2a" stroke="black" points="317,-223 60,-223 60,-160 317,-160 317,-223"/>
<text text-anchor="middle" x="188.5" y="-211" font-family="monospace" font-size="10.00" fill="#10b981">(condition&#45;case err</text>
<text text-anchor="middle" x="188.5" y="-200" font-family="monospace" font-size="10.00" fill="#10b981"> &#160;(progn (require feature) t)</text>
<text text-anchor="middle" x="188.5" y="-189" font-family="monospace" font-size="10.00" fill="#10b981"> &#160;(error</text>
<text text-anchor="middle" x="188.5" y="-178" font-family="monospace" font-size="10.00" fill="#10b981"> &#160;&#160;&#160;(message &quot;[modules] Failed: %s&quot; err)</text>
<text text-anchor="middle" x="188.5" y="-167" font-family="monospace" font-size="10.00" fill="#10b981"> &#160;&#160;&#160;nil))</text>
</g>
<!-- t0&#45;&gt;cc -->
<g id="edge4" class="edge">
<title>t0&#45;&gt;cc</title>
<path fill="none" stroke="black" d="M201.57,-268.85C199.84,-258.78 197.59,-245.61 195.44,-233.04"/>
<polygon fill="black" stroke="black" points="198.88,-232.43 193.75,-223.16 191.98,-233.61 198.88,-232.43"/>
</g>
<!-- ok -->
<g id="node6" class="node">
<title>ok</title>
<polygon fill="#ecfdf5" stroke="black" points="95,-111.5 0,-111.5 0,-75.5 95,-75.5 95,-111.5"/>
<text text-anchor="middle" x="47.5" y="-96.5" font-family="monospace" font-size="10.00" fill="#065f46">✓ &#160;result = t</text>
<text text-anchor="middle" x="47.5" y="-85.5" font-family="monospace" font-size="10.00" fill="#065f46">continue loop</text>
</g>
<!-- cc&#45;&gt;ok -->
<g id="edge5" class="edge">
<title>cc&#45;&gt;ok</title>
<path fill="none" stroke="#10b981" d="M143.5,-159.86C123.32,-146.12 99.92,-130.19 81.28,-117.5"/>
<polygon fill="#10b981" stroke="#10b981" points="83.05,-114.47 72.81,-111.73 79.11,-120.25 83.05,-114.47"/>
<text text-anchor="middle" x="131.5" y="-134.8" font-family="Helvetica,sans-Serif" font-size="9.00">success</text>
</g>
<!-- err -->
<g id="node7" class="node">
<title>err</title>
<polygon fill="#fef2f2" stroke="black" points="232,-114 113,-114 113,-73 232,-73 232,-114"/>
<text text-anchor="middle" x="172.5" y="-102" font-family="monospace" font-size="10.00" fill="#991b1b">✗ &#160;result = nil</text>
<text text-anchor="middle" x="172.5" y="-91" font-family="monospace" font-size="10.00" fill="#991b1b">error logged</text>
<text text-anchor="middle" x="172.5" y="-80" font-family="monospace" font-size="10.00" fill="#991b1b">next module loads</text>
</g>
<!-- cc&#45;&gt;err -->
<g id="edge6" class="edge">
<title>cc&#45;&gt;err</title>
<path fill="none" stroke="#ef4444" d="M183.39,-159.86C181.49,-148.43 179.33,-135.49 177.44,-124.15"/>
<polygon fill="#ef4444" stroke="#ef4444" points="180.89,-123.57 175.8,-114.28 173.99,-124.72 180.89,-123.57"/>
<text text-anchor="middle" x="190.5" y="-134.8" font-family="Helvetica,sans-Serif" font-size="9.00">error</text>
</g>
<!-- quit -->
<g id="node9" class="node">
<title>quit</title>
<polygon fill="#fef3c7" stroke="black" points="333,-111.5 250,-111.5 250,-75.5 333,-75.5 333,-111.5"/>
<text text-anchor="middle" x="291.5" y="-96.5" font-family="monospace" font-size="10.00" fill="#92400e">quit (C&#45;g)</text>
<text text-anchor="middle" x="291.5" y="-85.5" font-family="monospace" font-size="10.00" fill="#92400e">propagates!</text>
</g>
<!-- cc&#45;&gt;quit -->
<g id="edge7" class="edge">
<title>cc&#45;&gt;quit</title>
<path fill="none" stroke="#f59e0b" stroke-dasharray="5,2" d="M221.37,-159.86C235.65,-146.56 252.12,-131.2 265.52,-118.71"/>
<polygon fill="#f59e0b" stroke="#f59e0b" points="268.08,-121.11 273.01,-111.73 263.31,-115.99 268.08,-121.11"/>
<text text-anchor="middle" x="258" y="-134.8" font-family="Helvetica,sans-Serif" font-size="9.00">quit</text>
</g>
<!-- vb -->
<g id="node8" class="node">
<title>vb</title>
<polygon fill="#f1f5f9" stroke="black" points="232,-36 113,-36 113,0 232,0 232,-36"/>
<text text-anchor="middle" x="172.5" y="-21" font-family="monospace" font-size="10.00" fill="#334155">when verbose:</text>
<text text-anchor="middle" x="172.5" y="-10" font-family="monospace" font-size="10.00" fill="#334155">report elapsed ms</text>
</g>
<!-- ok&#45;&gt;vb -->
<g id="edge8" class="edge">
<title>ok&#45;&gt;vb</title>
<path fill="none" stroke="black" d="M76.49,-75.45C93.72,-65.32 115.78,-52.35 134.4,-41.4"/>
<polygon fill="black" stroke="black" points="136.39,-44.3 143.23,-36.21 132.84,-38.26 136.39,-44.3"/>
</g>
<!-- err&#45;&gt;vb -->
<g id="edge9" class="edge">
<title>err&#45;&gt;vb</title>
<path fill="none" stroke="black" d="M172.5,-72.8C172.5,-64.7 172.5,-55.18 172.5,-46.41"/>
<polygon fill="black" stroke="black" points="176,-46.25 172.5,-36.25 169,-46.25 176,-46.25"/>
</g>
<!-- vb&#45;&gt;loop -->
<g id="edge10" class="edge">
<title>vb&#45;&gt;loop</title>
<path fill="none" stroke="#94a3b8" stroke-dasharray="5,2" d="M232.04,-30.32C287.44,-42.6 361.5,-64.29 361.5,-92.5 361.5,-382 361.5,-382 361.5,-382 361.5,-405.59 345.3,-426.15 328.38,-441.2"/>
<polygon fill="#94a3b8" stroke="#94a3b8" points="326.02,-438.6 320.61,-447.71 330.52,-443.97 326.02,-438.6"/>
<text text-anchor="middle" x="389.5" y="-243.8" font-family="Helvetica,sans-Serif" font-size="9.00">next feature</text>
</g>
</g>
</svg>
