<?xml version="1.0" encoding="UTF-8" standalone="no"?>
<!DOCTYPE svg PUBLIC "-//W3C//DTD SVG 1.1//EN"
 "http://www.w3.org/Graphics/SVG/1.1/DTD/svg11.dtd">
<!-- Generated by graphviz version 2.43.0 (0)
 -->
<!-- Title: session_facade Pages: 1 -->
<svg width="858pt" height="515pt"
 viewBox="0.00 0.00 858.00 515.25" xmlns="http://www.w3.org/2000/svg" xmlns:xlink="http://www.w3.org/1999/xlink">
<g id="graph0" class="graph" transform="scale(1 1) rotate(0) translate(4 511.25)">
<title>session_facade</title>
<g id="clust1" class="cluster">
<title>cluster_pub</title>
<polygon fill="#f0fafa" stroke="#0d9488" points="8,-369.25 8,-444.25 842,-444.25 842,-369.25 8,-369.25"/>
<text text-anchor="middle" x="425" y="-429.05" font-family="Times,serif" font-size="14.00">core&#45;session.el &#160;[PUBLIC FACADE]</text>
</g>
<g id="clust2" class="cluster">
<title>cluster_priv</title>
<polygon fill="#1e293b" stroke="#475569" points="346,-8 346,-341.25 801,-341.25 801,-8 346,-8"/>
<text text-anchor="middle" x="573.5" y="-326.05" font-family="Times,serif" font-size="14.00">core&#45;session&#45;private.el &#160;[INTERNAL — never require directly]</text>
</g>
<!-- caller -->
<g id="node1" class="node">
<title>caller</title>
<polygon fill="#f1f5f9" stroke="black" points="653,-507.25 527,-507.25 527,-471.25 653,-471.25 653,-507.25"/>
<text text-anchor="middle" x="590" y="-492.25" font-family="Helvetica,sans-Serif" font-size="10.00" fill="#334155">External Modules</text>
<text text-anchor="middle" x="590" y="-481.25" font-family="Helvetica,sans-Serif" font-size="10.00" fill="#334155">(require &#39;core&#45;session)</text>
</g>
<!-- api1 -->
<g id="node2" class="node">
<title>api1</title>
<polygon fill="#0d9488" stroke="black" points="498.5,-413.25 383.5,-413.25 383.5,-377.25 498.5,-377.25 498.5,-413.25"/>
<text text-anchor="middle" x="441" y="-392.75" font-family="Helvetica,sans-Serif" font-size="10.00" fill="white">core&#45;session&#45;start ()</text>
</g>
<!-- caller&#45;&gt;api1 -->
<g id="edge1" class="edge">
<title>caller&#45;&gt;api1</title>
<path fill="none" stroke="black" stroke-dasharray="5,2" d="M555.93,-471.23C540.97,-463.43 523.36,-453.82 508,-444.25 495.81,-436.65 482.87,-427.63 471.65,-419.47"/>
<polygon fill="black" stroke="black" points="473.58,-416.54 463.45,-413.44 469.43,-422.18 473.58,-416.54"/>
</g>
<!-- api3 -->
<g id="node4" class="node">
<title>api3</title>
<polygon fill="#0f766e" stroke="black" points="834.5,-413.25 647.5,-413.25 647.5,-377.25 834.5,-377.25 834.5,-413.25"/>
<text text-anchor="middle" x="741" y="-392.75" font-family="Helvetica,sans-Serif" font-size="10.00" fill="white">core&#45;session&#45;register&#45;job NAME FN</text>
</g>
<!-- caller&#45;&gt;api3 -->
<g id="edge2" class="edge">
<title>caller&#45;&gt;api3</title>
<path fill="none" stroke="black" d="M618.05,-471.16C642.34,-456.36 677.65,-434.85 704.2,-418.67"/>
<polygon fill="black" stroke="black" points="706.13,-421.6 712.85,-413.4 702.49,-415.62 706.13,-421.6"/>
</g>
<!-- ht -->
<g id="node7" class="node">
<title>ht</title>
<path fill="#334155" stroke="black" d="M641.5,-306.6C641.5,-308.68 608.11,-310.38 567,-310.38 525.89,-310.38 492.5,-308.68 492.5,-306.6 492.5,-306.6 492.5,-272.65 492.5,-272.65 492.5,-270.57 525.89,-268.87 567,-268.87 608.11,-268.87 641.5,-270.57 641.5,-272.65 641.5,-272.65 641.5,-306.6 641.5,-306.6"/>
<path fill="none" stroke="black" d="M641.5,-306.6C641.5,-304.52 608.11,-302.83 567,-302.83 525.89,-302.83 492.5,-304.52 492.5,-306.6"/>
<text text-anchor="middle" x="567" y="-292.62" font-family="Helvetica,sans-Serif" font-size="10.00" fill="#cbd5e1">jobs&#45;table</text>
<text text-anchor="middle" x="567" y="-281.62" font-family="Helvetica,sans-Serif" font-size="10.00" fill="#cbd5e1">(make&#45;hash&#45;table :test &#39;eq)</text>
</g>
<!-- api1&#45;&gt;ht -->
<g id="edge3" class="edge">
<title>api1&#45;&gt;ht</title>
<path fill="none" stroke="black" d="M461.81,-377.14C481.69,-360.79 511.95,-335.9 534.92,-317.01"/>
<polygon fill="black" stroke="black" points="537.21,-319.66 542.71,-310.6 532.76,-314.25 537.21,-319.66"/>
<text text-anchor="middle" x="525.5" y="-352.05" font-family="Helvetica,sans-Serif" font-size="9.00">ensure&#45;started</text>
</g>
<!-- api2 -->
<g id="node3" class="node">
<title>api2</title>
<polygon fill="#0d9488" stroke="black" points="629.5,-413.25 516.5,-413.25 516.5,-377.25 629.5,-377.25 629.5,-413.25"/>
<text text-anchor="middle" x="573" y="-392.75" font-family="Helvetica,sans-Serif" font-size="10.00" fill="white">core&#45;session&#45;stop ()</text>
</g>
<!-- api3&#45;&gt;ht -->
<g id="edge4" class="edge">
<title>api3&#45;&gt;ht</title>
<path fill="none" stroke="black" d="M712.27,-377.14C684.12,-360.38 640.92,-334.65 608.94,-315.6"/>
<polygon fill="black" stroke="black" points="610.62,-312.53 600.24,-310.42 607.04,-318.54 610.62,-312.53"/>
<text text-anchor="middle" x="698" y="-352.05" font-family="Helvetica,sans-Serif" font-size="9.00">puthash</text>
</g>
<!-- api4 -->
<g id="node5" class="node">
<title>api4</title>
<polygon fill="#0f766e" stroke="black" points="365,-413.25 183,-413.25 183,-377.25 365,-377.25 365,-413.25"/>
<text text-anchor="middle" x="274" y="-392.75" font-family="Helvetica,sans-Serif" font-size="10.00" fill="white">core&#45;session&#45;unregister&#45;job NAME</text>
</g>
<!-- api5 -->
<g id="node6" class="node">
<title>api5</title>
<polygon fill="#0f766e" stroke="black" points="164.5,-413.25 15.5,-413.25 15.5,-377.25 164.5,-377.25 164.5,-413.25"/>
<text text-anchor="middle" x="90" y="-392.75" font-family="Helvetica,sans-Serif" font-size="10.00" fill="white">core&#45;session&#45;run&#45;job NAME</text>
</g>
<!-- pt -->
<g id="node8" class="node">
<title>pt</title>
<polygon fill="#1d4ed8" stroke="black" points="553,-232 393,-232 393,-196 553,-196 553,-232"/>
<text text-anchor="middle" x="473" y="-217" font-family="Helvetica,sans-Serif" font-size="10.00" fill="white">periodic&#45;timer</text>
<text text-anchor="middle" x="473" y="-206" font-family="Helvetica,sans-Serif" font-size="10.00" fill="white">run&#45;at&#45;time 600 600 #&#39;run&#45;all</text>
</g>
<!-- ht&#45;&gt;pt -->
<!-- it -->
<g id="node9" class="node">
<title>it</title>
<polygon fill="#047857" stroke="black" points="753,-232 571,-232 571,-196 753,-196 753,-232"/>
<text text-anchor="middle" x="662" y="-217" font-family="Helvetica,sans-Serif" font-size="10.00" fill="white">idle&#45;timer</text>
<text text-anchor="middle" x="662" y="-206" font-family="Helvetica,sans-Serif" font-size="10.00" fill="white">run&#45;with&#45;idle&#45;timer 120 t #&#39;run&#45;all</text>
</g>
<!-- ht&#45;&gt;it -->
<!-- ra -->
<g id="node10" class="node">
<title>ra</title>
<polygon fill="#0369a1" stroke="black" points="633.5,-150 500.5,-150 500.5,-114 633.5,-114 633.5,-150"/>
<text text-anchor="middle" x="567" y="-135" font-family="Helvetica,sans-Serif" font-size="10.00" fill="white">core&#45;session&#45;&#45;run&#45;all</text>
<text text-anchor="middle" x="567" y="-124" font-family="Helvetica,sans-Serif" font-size="10.00" fill="white">(maphash ... jobs&#45;table)</text>
</g>
<!-- pt&#45;&gt;ra -->
<g id="edge7" class="edge">
<title>pt&#45;&gt;ra</title>
<path fill="none" stroke="black" d="M493.4,-195.64C506.79,-184.24 524.48,-169.18 539.17,-156.69"/>
<polygon fill="black" stroke="black" points="541.62,-159.2 546.97,-150.05 537.08,-153.87 541.62,-159.2"/>
<text text-anchor="middle" x="536.5" y="-170.8" font-family="Helvetica,sans-Serif" font-size="9.00">600s</text>
</g>
<!-- it&#45;&gt;ra -->
<g id="edge8" class="edge">
<title>it&#45;&gt;ra</title>
<path fill="none" stroke="black" d="M641.39,-195.64C627.85,-184.24 609.97,-169.18 595.13,-156.69"/>
<polygon fill="black" stroke="black" points="597.15,-153.81 587.25,-150.05 592.64,-159.17 597.15,-153.81"/>
<text text-anchor="middle" x="641" y="-170.8" font-family="Helvetica,sans-Serif" font-size="9.00">120s idle</text>
</g>
<!-- rj -->
<g id="node11" class="node">
<title>rj</title>
<polygon fill="#0369a1" stroke="black" points="627,-68 507,-68 507,-16 627,-16 627,-68"/>
<text text-anchor="middle" x="567" y="-56" font-family="Helvetica,sans-Serif" font-size="10.00" fill="white">core&#45;session&#45;&#45;run&#45;job</text>
<text text-anchor="middle" x="567" y="-45" font-family="Helvetica,sans-Serif" font-size="10.00" fill="white">(condition&#45;case _err</text>
<text text-anchor="middle" x="567" y="-34" font-family="Helvetica,sans-Serif" font-size="10.00" fill="white"> &#160;(funcall fn)</text>
<text text-anchor="middle" x="567" y="-23" font-family="Helvetica,sans-Serif" font-size="10.00" fill="white"> &#160;(error nil))</text>
</g>
<!-- ra&#45;&gt;rj -->
<g id="edge9" class="edge">
<title>ra&#45;&gt;rj</title>
<path fill="none" stroke="black" d="M567,-113.61C567,-103.54 567,-90.49 567,-78.35"/>
<polygon fill="black" stroke="black" points="570.5,-78.01 567,-68.01 563.5,-78.01 570.5,-78.01"/>
<text text-anchor="middle" x="615" y="-88.8" font-family="Helvetica,sans-Serif" font-size="9.00">for each :enabled job</text>
</g>
</g>
</svg>
