<?xml version="1.0" encoding="UTF-8" standalone="no"?>
<!DOCTYPE svg PUBLIC "-//W3C//DTD SVG 1.1//EN"
 "http://www.w3.org/Graphics/SVG/1.1/DTD/svg11.dtd">
<!-- Generated by graphviz version 2.43.0 (0)
 -->
<!-- Title: gc_strategy Pages: 1 -->
<svg width="916pt" height="328pt"
 viewBox="0.00 0.00 916.00 328.00" xmlns="http://www.w3.org/2000/svg" xmlns:xlink="http://www.w3.org/1999/xlink">
<g id="graph0" class="graph" transform="scale(1 1) rotate(0) translate(4 324)">
<title>gc_strategy</title>
<g id="clust1" class="cluster">
<title>cluster_ei</title>
<polygon fill="#ede9fe" stroke="#6d28d9" points="8,-11 8,-86 503,-86 503,-11 8,-11"/>
<text text-anchor="middle" x="255.5" y="-70.8" font-family="Times,serif" font-size="14.00">early&#45;init.el &#160;§8</text>
</g>
<g id="clust2" class="cluster">
<title>cluster_ai</title>
<polygon fill="#dbeafe" stroke="#1d4ed8" points="586,-8 586,-89 900,-89 900,-8 586,-8"/>
<text text-anchor="middle" x="743" y="-73.8" font-family="Times,serif" font-size="14.00">after&#45;init&#45;hook</text>
</g>
<g id="clust3" class="cluster">
<title>cluster_gc</title>
<polygon fill="#dcfce7" stroke="#047857" points="13.5,-94 13.5,-223 327,-223 327,-94 13.5,-94"/>
<text text-anchor="middle" x="170.25" y="-207.8" font-family="Times,serif" font-size="14.00">core&#45;gc.el &#160;[explicit triggers]</text>
</g>
<g id="clust4" class="cluster">
<title>cluster_gcmh</title>
<polygon fill="#f0fdf4" stroke="#16a34a" points="11,-231 11,-312 333,-312 333,-231 11,-231"/>
<text text-anchor="middle" x="172" y="-296.8" font-family="Times,serif" font-size="14.00">gcmh &#160;[core&#45;runtime.el]</text>
</g>
<!-- ei1 -->
<g id="node1" class="node">
<title>ei1</title>
<polygon fill="#7c3aed" stroke="black" points="144,-55 16,-55 16,-19 144,-19 144,-55"/>
<text text-anchor="middle" x="80" y="-40" font-family="Helvetica,sans-Serif" font-size="10.00" fill="white">save</text>
<text text-anchor="middle" x="80" y="-29" font-family="Helvetica,sans-Serif" font-size="10.00" fill="white">file&#45;name&#45;handler&#45;alist</text>
</g>
<!-- ei2 -->
<g id="node2" class="node">
<title>ei2</title>
<polygon fill="#6d28d9" stroke="black" points="307,-55 199,-55 199,-19 307,-19 307,-55"/>
<text text-anchor="middle" x="253" y="-40" font-family="Helvetica,sans-Serif" font-size="10.00" fill="white">set to nil</text>
<text text-anchor="middle" x="253" y="-29" font-family="Helvetica,sans-Serif" font-size="10.00" fill="white">(clear all handlers)</text>
</g>
<!-- ei1&#45;&gt;ei2 -->
<g id="edge1" class="edge">
<title>ei1&#45;&gt;ei2</title>
<path fill="none" stroke="black" d="M144.19,-37C158.66,-37 174.04,-37 188.53,-37"/>
<polygon fill="black" stroke="black" points="188.88,-40.5 198.88,-37 188.88,-33.5 188.88,-40.5"/>
</g>
<!-- ei3 -->
<g id="node3" class="node">
<title>ei3</title>
<polygon fill="#6d28d9" stroke="black" points="495,-55 362,-55 362,-19 495,-19 495,-55"/>
<text text-anchor="middle" x="428.5" y="-40" font-family="Helvetica,sans-Serif" font-size="10.00" fill="white">gc&#45;cons&#45;threshold</text>
<text text-anchor="middle" x="428.5" y="-29" font-family="Helvetica,sans-Serif" font-size="10.00" fill="white">= most&#45;positive&#45;fixnum</text>
</g>
<!-- ei2&#45;&gt;ei3 -->
<g id="edge2" class="edge">
<title>ei2&#45;&gt;ei3</title>
<path fill="none" stroke="black" d="M307.47,-37C321.47,-37 336.82,-37 351.74,-37"/>
<polygon fill="black" stroke="black" points="351.98,-40.5 361.98,-37 351.98,-33.5 351.98,-40.5"/>
</g>
<!-- ai1 -->
<g id="node4" class="node">
<title>ai1</title>
<polygon fill="#1d4ed8" stroke="black" points="751,-57.5 594,-57.5 594,-16.5 751,-16.5 751,-57.5"/>
<text text-anchor="middle" x="672.5" y="-45.5" font-family="Helvetica,sans-Serif" font-size="10.00" fill="white">restore</text>
<text text-anchor="middle" x="672.5" y="-34.5" font-family="Helvetica,sans-Serif" font-size="10.00" fill="white">file&#45;name&#45;handler&#45;alist</text>
<text text-anchor="middle" x="672.5" y="-23.5" font-family="Helvetica,sans-Serif" font-size="10.00" fill="white">← TRAMP handler lives here!</text>
</g>
<!-- ei3&#45;&gt;ai1 -->
<g id="edge3" class="edge">
<title>ei3&#45;&gt;ai1</title>
<path fill="none" stroke="#6d28d9" stroke-dasharray="5,2" d="M495.31,-37C522.48,-37 554.37,-37 583.5,-37"/>
<polygon fill="#6d28d9" stroke="#6d28d9" points="583.68,-40.5 593.68,-37 583.68,-33.5 583.68,-40.5"/>
<text text-anchor="middle" x="544.5" y="-49.8" font-family="Helvetica,sans-Serif" font-size="9.00">restore on</text>
<text text-anchor="middle" x="544.5" y="-39.8" font-family="Helvetica,sans-Serif" font-size="9.00">after&#45;init&#45;hook</text>
</g>
<!-- ai2 -->
<g id="node5" class="node">
<title>ai2</title>
<polygon fill="#2563eb" stroke="black" points="892,-55 788,-55 788,-19 892,-19 892,-55"/>
<text text-anchor="middle" x="840" y="-40" font-family="Helvetica,sans-Serif" font-size="10.00" fill="white">gc&#45;cons&#45;threshold</text>
<text text-anchor="middle" x="840" y="-29" font-family="Helvetica,sans-Serif" font-size="10.00" fill="white">= 128MiB</text>
</g>
<!-- ai1&#45;&gt;ai2 -->
<g id="edge4" class="edge">
<title>ai1&#45;&gt;ai2</title>
<path fill="none" stroke="black" d="M751.4,-37C760.23,-37 769.12,-37 777.69,-37"/>
<polygon fill="black" stroke="black" points="777.94,-40.5 787.94,-37 777.94,-33.5 777.94,-40.5"/>
</g>
<!-- gc1 -->
<g id="node6" class="node">
<title>gc1</title>
<polygon fill="#047857" stroke="black" points="132,-192 28,-192 28,-156 132,-156 132,-192"/>
<text text-anchor="middle" x="80" y="-177" font-family="Helvetica,sans-Serif" font-size="10.00" fill="white">focus&#45;out&#45;hook</text>
<text text-anchor="middle" x="80" y="-166" font-family="Helvetica,sans-Serif" font-size="10.00" fill="white">→ core&#45;gc&#45;&#45;collect</text>
</g>
<!-- gc3 -->
<g id="node8" class="node">
<title>gc3</title>
<polygon fill="#f0fdf4" stroke="black" points="319,-173 187,-173 187,-121 319,-121 319,-173"/>
<text text-anchor="middle" x="253" y="-161" font-family="Helvetica,sans-Serif" font-size="10.00" fill="#065f46">(when core&#45;gc&#45;enable&#45;p</text>
<text text-anchor="middle" x="253" y="-150" font-family="Helvetica,sans-Serif" font-size="10.00" fill="#065f46"> &#160;(condition&#45;case _</text>
<text text-anchor="middle" x="253" y="-139" font-family="Helvetica,sans-Serif" font-size="10.00" fill="#065f46"> &#160;&#160;&#160;(garbage&#45;collect)</text>
<text text-anchor="middle" x="253" y="-128" font-family="Helvetica,sans-Serif" font-size="10.00" fill="#065f46"> &#160;&#160;&#160;(error nil)))</text>
</g>
<!-- gc1&#45;&gt;gc3 -->
<g id="edge5" class="edge">
<title>gc1&#45;&gt;gc3</title>
<path fill="none" stroke="black" d="M132.31,-165.9C146.21,-163.7 161.57,-161.28 176.51,-158.92"/>
<polygon fill="black" stroke="black" points="177.43,-162.32 186.76,-157.3 176.34,-155.4 177.43,-162.32"/>
</g>
<!-- gc2 -->
<g id="node7" class="node">
<title>gc2</title>
<polygon fill="#065f46" stroke="black" points="138.5,-138 21.5,-138 21.5,-102 138.5,-102 138.5,-138"/>
<text text-anchor="middle" x="80" y="-123" font-family="Helvetica,sans-Serif" font-size="10.00" fill="white">minibuffer&#45;exit&#45;hook</text>
<text text-anchor="middle" x="80" y="-112" font-family="Helvetica,sans-Serif" font-size="10.00" fill="white">→ core&#45;gc&#45;&#45;collect</text>
</g>
<!-- gc2&#45;&gt;gc3 -->
<g id="edge6" class="edge">
<title>gc2&#45;&gt;gc3</title>
<path fill="none" stroke="black" d="M138.89,-129.14C151.05,-131.06 164.04,-133.11 176.72,-135.11"/>
<polygon fill="black" stroke="black" points="176.39,-138.6 186.81,-136.71 177.48,-131.69 176.39,-138.6"/>
</g>
<!-- gh1 -->
<g id="node9" class="node">
<title>gh1</title>
<polygon fill="#16a34a" stroke="black" points="141,-278 19,-278 19,-242 141,-242 141,-278"/>
<text text-anchor="middle" x="80" y="-257.5" font-family="Helvetica,sans-Serif" font-size="10.00" fill="white">gcmh&#45;idle&#45;delay = 5s</text>
</g>
<!-- gh2 -->
<g id="node10" class="node">
<title>gh2</title>
<polygon fill="#15803d" stroke="black" points="325,-280.5 181,-280.5 181,-239.5 325,-239.5 325,-280.5"/>
<text text-anchor="middle" x="253" y="-268.5" font-family="Helvetica,sans-Serif" font-size="10.00" fill="white">gcmh&#45;high&#45;cons&#45;threshold</text>
<text text-anchor="middle" x="253" y="-257.5" font-family="Helvetica,sans-Serif" font-size="10.00" fill="white">= (* 128 1024 1024)</text>
<text text-anchor="middle" x="253" y="-246.5" font-family="Helvetica,sans-Serif" font-size="10.00" fill="white">(setopt in :config!)</text>
</g>
<!-- gh1&#45;&gt;gh2 -->
<g id="edge7" class="edge">
<title>gh1&#45;&gt;gh2</title>
<path fill="none" stroke="black" d="M141.29,-260C150.78,-260 160.73,-260 170.6,-260"/>
<polygon fill="black" stroke="black" points="170.84,-263.5 180.84,-260 170.84,-256.5 170.84,-263.5"/>
</g>
</g>
</svg>
