<?xml version="1.0" encoding="UTF-8" standalone="no"?>
<!DOCTYPE svg PUBLIC "-//W3C//DTD SVG 1.1//EN"
 "http://www.w3.org/Graphics/SVG/1.1/DTD/svg11.dtd">
<!-- Generated by graphviz version 2.43.0 (0)
 -->
<!-- Title: autosave Pages: 1 -->
<svg width="631pt" height="720pt"
 viewBox="0.00 0.00 631.00 720.00" xmlns="http://www.w3.org/2000/svg" xmlns:xlink="http://www.w3.org/1999/xlink">
<g id="graph0" class="graph" transform="scale(1 1) rotate(0) translate(4 716)">
<title>autosave</title>
<!-- t1 -->
<g id="node1" class="node">
<title>t1</title>
<polygon fill="#1d4ed8" stroke="black" points="344.5,-712 211.5,-712 211.5,-676 344.5,-676 344.5,-712"/>
<text text-anchor="middle" x="278" y="-697" font-family="Helvetica,sans-Serif" font-size="10.00" fill="white">auto&#45;save&#45;visited&#45;mode</text>
<text text-anchor="middle" x="278" y="-686" font-family="Helvetica,sans-Serif" font-size="10.00" fill="white">timer (≥5s idle)</text>
</g>
<!-- merge -->
<g id="node4" class="node">
<title>merge</title>
<polygon fill="#0d9488" stroke="black" points="499,-639 317,-639 317,-603 499,-603 499,-639"/>
<text text-anchor="middle" x="408" y="-624" font-family="Helvetica,sans-Serif" font-size="10.00" fill="white">core&#45;editing&#45;&#45;save&#45;all&#45;buffers</text>
<text text-anchor="middle" x="408" y="-613" font-family="Helvetica,sans-Serif" font-size="10.00" fill="white">(save&#45;some&#45;buffers t #&#39;predicate)</text>
</g>
<!-- t1&#45;&gt;merge -->
<g id="edge1" class="edge">
<title>t1&#45;&gt;merge</title>
<path fill="none" stroke="black" d="M309.14,-675.99C326.7,-666.4 348.83,-654.32 367.7,-644.01"/>
<polygon fill="black" stroke="black" points="369.57,-646.98 376.67,-639.11 366.21,-640.84 369.57,-646.98"/>
</g>
<!-- t2 -->
<g id="node2" class="node">
<title>t2</title>
<polygon fill="#0369a1" stroke="black" points="453,-712 363,-712 363,-676 453,-676 453,-712"/>
<text text-anchor="middle" x="408" y="-697" font-family="Helvetica,sans-Serif" font-size="10.00" fill="white">focus&#45;out&#45;hook</text>
<text text-anchor="middle" x="408" y="-686" font-family="Helvetica,sans-Serif" font-size="10.00" fill="white">(OS focus lost)</text>
</g>
<!-- t2&#45;&gt;merge -->
<g id="edge2" class="edge">
<title>t2&#45;&gt;merge</title>
<path fill="none" stroke="black" d="M408,-675.81C408,-667.79 408,-658.05 408,-649.07"/>
<polygon fill="black" stroke="black" points="411.5,-649.03 408,-639.03 404.5,-649.03 411.5,-649.03"/>
</g>
<!-- t3 -->
<g id="node3" class="node">
<title>t3</title>
<polygon fill="#0f766e" stroke="black" points="623,-712 471,-712 471,-676 623,-676 623,-712"/>
<text text-anchor="middle" x="547" y="-697" font-family="Helvetica,sans-Serif" font-size="10.00" fill="white">after&#45;focus&#45;change&#45;function</text>
<text text-anchor="middle" x="547" y="-686" font-family="Helvetica,sans-Serif" font-size="10.00" fill="white">(zero&#45;arg)</text>
</g>
<!-- t3&#45;&gt;merge -->
<g id="edge3" class="edge">
<title>t3&#45;&gt;merge</title>
<path fill="none" stroke="black" d="M513.71,-675.99C494.76,-666.32 470.84,-654.1 450.54,-643.73"/>
<polygon fill="black" stroke="black" points="452,-640.55 441.5,-639.11 448.82,-646.78 452,-640.55"/>
</g>
<!-- p1 -->
<g id="node5" class="node">
<title>p1</title>
<polygon fill="#f1f5f9" stroke="black" points="408,-566 307,-536 408,-506 509,-536 408,-566"/>
<text text-anchor="middle" x="408" y="-539" font-family="Helvetica,sans-Serif" font-size="10.00" fill="#334155">buffer&#45;file&#45;name?</text>
<text text-anchor="middle" x="408" y="-528" font-family="Helvetica,sans-Serif" font-size="10.00" fill="#334155">(non&#45;file buffer?)</text>
</g>
<!-- merge&#45;&gt;p1 -->
<g id="edge4" class="edge">
<title>merge&#45;&gt;p1</title>
<path fill="none" stroke="black" d="M408,-602.8C408,-595.14 408,-585.78 408,-576.55"/>
<polygon fill="black" stroke="black" points="411.5,-576.27 408,-566.27 404.5,-576.27 411.5,-576.27"/>
</g>
<!-- p2 -->
<g id="node6" class="node">
<title>p2</title>
<polygon fill="#f1f5f9" stroke="black" points="333,-460 211,-430 333,-400 455,-430 333,-460"/>
<text text-anchor="middle" x="333" y="-433" font-family="Helvetica,sans-Serif" font-size="10.00" fill="#334155">extension excluded?</text>
<text text-anchor="middle" x="333" y="-422" font-family="Helvetica,sans-Serif" font-size="10.00" fill="#334155">gpg age enc pem p12</text>
</g>
<!-- p1&#45;&gt;p2 -->
<g id="edge6" class="edge">
<title>p1&#45;&gt;p2</title>
<path fill="none" stroke="black" d="M390.6,-510.88C380.53,-496.91 367.7,-479.12 356.71,-463.88"/>
<polygon fill="black" stroke="black" points="359.51,-461.78 350.82,-455.71 353.83,-465.87 359.51,-461.78"/>
<text text-anchor="middle" x="397" y="-480.8" font-family="Helvetica,sans-Serif" font-size="9.00">has fname</text>
</g>
<!-- skip -->
<g id="node10" class="node">
<title>skip</title>
<polygon fill="#fef2f2" stroke="black" points="368.5,-36 287.5,-36 287.5,0 368.5,0 368.5,-36"/>
<text text-anchor="middle" x="328" y="-21" font-family="Helvetica,sans-Serif" font-size="10.00" fill="#991b1b">SKIP</text>
<text text-anchor="middle" x="328" y="-10" font-family="Helvetica,sans-Serif" font-size="10.00" fill="#991b1b">(do not save)</text>
</g>
<!-- p1&#45;&gt;skip -->
<g id="edge5" class="edge">
<title>p1&#45;&gt;skip</title>
<path fill="none" stroke="black" d="M435.5,-513.83C456.91,-494.76 483,-464.61 483,-431 483,-431 483,-431 483,-111 483,-61.54 423.92,-38.09 378.71,-27.38"/>
<polygon fill="black" stroke="black" points="379.25,-23.91 368.72,-25.16 377.73,-30.74 379.25,-23.91"/>
<text text-anchor="middle" x="504.5" y="-268.8" font-family="Helvetica,sans-Serif" font-size="9.00">no fname</text>
</g>
<!-- p3 -->
<g id="node7" class="node">
<title>p3</title>
<polygon fill="#f1f5f9" stroke="black" points="243,-354 121,-324 243,-294 365,-324 243,-354"/>
<text text-anchor="middle" x="243" y="-327" font-family="Helvetica,sans-Serif" font-size="10.00" fill="#334155">name&#45;pattern match?</text>
<text text-anchor="middle" x="243" y="-316" font-family="Helvetica,sans-Serif" font-size="10.00" fill="#334155">(regexp on full path)</text>
</g>
<!-- p2&#45;&gt;p3 -->
<g id="edge8" class="edge">
<title>p2&#45;&gt;p3</title>
<path fill="none" stroke="black" d="M312.13,-404.88C299.74,-390.57 283.9,-372.27 270.51,-356.79"/>
<polygon fill="black" stroke="black" points="272.95,-354.26 263.76,-348.99 267.66,-358.84 272.95,-354.26"/>
<text text-anchor="middle" x="298" y="-374.8" font-family="Helvetica,sans-Serif" font-size="9.00">NO</text>
</g>
<!-- p2&#45;&gt;skip -->
<g id="edge7" class="edge">
<title>p2&#45;&gt;skip</title>
<path fill="none" stroke="black" d="M356.03,-405.56C372.95,-385.79 393,-355.85 393,-325 393,-325 393,-325 393,-111 393,-84.54 374.85,-60.36 357.73,-43.43"/>
<polygon fill="black" stroke="black" points="359.69,-40.47 350.01,-36.18 354.9,-45.58 359.69,-40.47"/>
<text text-anchor="middle" x="424" y="-215.8" font-family="Helvetica,sans-Serif" font-size="9.00">YES excluded</text>
</g>
<!-- p4 -->
<g id="node8" class="node">
<title>p4</title>
<polygon fill="#f1f5f9" stroke="black" points="171,-248 42,-218 171,-188 300,-218 171,-248"/>
<text text-anchor="middle" x="171" y="-221" font-family="Helvetica,sans-Serif" font-size="10.00" fill="#334155">major&#45;mode excluded?</text>
<text text-anchor="middle" x="171" y="-210" font-family="Helvetica,sans-Serif" font-size="10.00" fill="#334155">(vterm&#45;mode etc)</text>
</g>
<!-- p3&#45;&gt;p4 -->
<g id="edge10" class="edge">
<title>p3&#45;&gt;p4</title>
<path fill="none" stroke="black" d="M225.75,-298.09C216.29,-284.43 204.44,-267.3 194.18,-252.48"/>
<polygon fill="black" stroke="black" points="196.92,-250.3 188.35,-244.07 191.17,-254.28 196.92,-250.3"/>
<text text-anchor="middle" x="217" y="-268.8" font-family="Helvetica,sans-Serif" font-size="9.00">NO</text>
</g>
<!-- p3&#45;&gt;skip -->
<g id="edge9" class="edge">
<title>p3&#45;&gt;skip</title>
<path fill="none" stroke="black" d="M269.82,-300.5C284.07,-286.89 300.38,-268.27 309,-248 324.16,-212.36 327.25,-99.02 327.86,-46.37"/>
<polygon fill="black" stroke="black" points="331.37,-46.14 327.96,-36.11 324.37,-46.07 331.37,-46.14"/>
<text text-anchor="middle" x="349" y="-162.8" font-family="Helvetica,sans-Serif" font-size="9.00">YES match</text>
</g>
<!-- p5 -->
<g id="node9" class="node">
<title>p5</title>
<polygon fill="#f1f5f9" stroke="black" points="101,-142 0,-112 101,-82 202,-112 101,-142"/>
<text text-anchor="middle" x="101" y="-115" font-family="Helvetica,sans-Serif" font-size="10.00" fill="#334155">custom predicate</text>
<text text-anchor="middle" x="101" y="-104" font-family="Helvetica,sans-Serif" font-size="10.00" fill="#334155">returns non&#45;nil?</text>
</g>
<!-- p4&#45;&gt;p5 -->
<g id="edge12" class="edge">
<title>p4&#45;&gt;p5</title>
<path fill="none" stroke="black" d="M154.05,-191.82C144.72,-177.95 133.02,-160.58 122.99,-145.67"/>
<polygon fill="black" stroke="black" points="125.79,-143.57 117.31,-137.23 119.99,-147.48 125.79,-143.57"/>
<text text-anchor="middle" x="146" y="-162.8" font-family="Helvetica,sans-Serif" font-size="9.00">NO</text>
</g>
<!-- p4&#45;&gt;skip -->
<g id="edge11" class="edge">
<title>p4&#45;&gt;skip</title>
<path fill="none" stroke="black" d="M185.2,-191.04C203.92,-157.21 236.33,-100.25 252,-82 264.6,-67.33 280.86,-53.35 295.11,-42.3"/>
<polygon fill="black" stroke="black" points="297.36,-44.98 303.22,-36.15 293.13,-39.41 297.36,-44.98"/>
<text text-anchor="middle" x="283" y="-109.8" font-family="Helvetica,sans-Serif" font-size="9.00">YES excluded</text>
</g>
<!-- p5&#45;&gt;skip -->
<g id="edge13" class="edge">
<title>p5&#45;&gt;skip</title>
<path fill="none" stroke="black" d="M132.74,-91.4C153.12,-79.42 180.47,-64.45 206,-54 228.9,-44.63 255.19,-36.75 277.48,-30.85"/>
<polygon fill="black" stroke="black" points="278.61,-34.17 287.42,-28.28 276.86,-27.39 278.61,-34.17"/>
<text text-anchor="middle" x="215" y="-56.8" font-family="Helvetica,sans-Serif" font-size="9.00">YES</text>
</g>
<!-- save -->
<g id="node11" class="node">
<title>save</title>
<polygon fill="#ecfdf5" stroke="black" stroke-width="2" points="138,-36 64,-36 64,0 138,0 138,-36"/>
<text text-anchor="middle" x="101" y="-15.5" font-family="Helvetica,sans-Serif" font-size="10.00" fill="#065f46">SAVE buffer</text>
</g>
<!-- p5&#45;&gt;save -->
<g id="edge14" class="edge">
<title>p5&#45;&gt;save</title>
<path fill="none" stroke="black" d="M101,-81.89C101,-70.48 101,-57.46 101,-46.24"/>
<polygon fill="black" stroke="black" points="104.5,-46.14 101,-36.14 97.5,-46.14 104.5,-46.14"/>
<text text-anchor="middle" x="141.5" y="-56.8" font-family="Helvetica,sans-Serif" font-size="9.00">NO → safe to save</text>
</g>
</g>
</svg>
