<?xml version="1.0" encoding="UTF-8" standalone="no"?>
<!DOCTYPE svg PUBLIC "-//W3C//DTD SVG 1.1//EN"
 "http://www.w3.org/Graphics/SVG/1.1/DTD/svg11.dtd">
<!-- Generated by graphviz version 2.43.0 (0)
 -->
<!-- Title: auth_resolution Pages: 1 -->
<svg width="571pt" height="630pt"
 viewBox="0.00 0.00 570.50 630.00" xmlns="http://www.w3.org/2000/svg" xmlns:xlink="http://www.w3.org/1999/xlink">
<g id="graph0" class="graph" transform="scale(1 1) rotate(0) translate(4 626)">
<title>auth_resolution</title>
<g id="clust1" class="cluster">
<title>cluster_load</title>
<polygon fill="#f1f5f9" stroke="#94a3b8" points="34.5,-285 34.5,-614 206.5,-614 206.5,-285 34.5,-285"/>
<text text-anchor="middle" x="120.5" y="-598.8" font-family="Times,serif" font-size="14.00">modules.el load order</text>
</g>
<!-- ac -->
<g id="node1" class="node">
<title>ac</title>
<polygon fill="#0f766e" stroke="black" points="177.5,-583 87.5,-583 87.5,-547 177.5,-547 177.5,-583"/>
<text text-anchor="middle" x="132.5" y="-568" font-family="Helvetica,sans-Serif" font-size="10.00" fill="white">auth&#45;core.el</text>
<text text-anchor="middle" x="132.5" y="-557" font-family="Helvetica,sans-Serif" font-size="10.00" fill="white">epa&#45;file&#45;enable</text>
</g>
<!-- ag -->
<g id="node2" class="node">
<title>ag</title>
<polygon fill="#0d9488" stroke="black" points="198,-510 67,-510 67,-474 198,-474 198,-510"/>
<text text-anchor="middle" x="132.5" y="-495" font-family="Helvetica,sans-Serif" font-size="10.00" fill="white">auth&#45;gpg.el</text>
<text text-anchor="middle" x="132.5" y="-484" font-family="Helvetica,sans-Serif" font-size="10.00" fill="white">(Fix CD — new module)</text>
</g>
<!-- ac&#45;&gt;ag -->
<g id="edge1" class="edge">
<title>ac&#45;&gt;ag</title>
<path fill="none" stroke="black" d="M132.5,-546.81C132.5,-538.79 132.5,-529.05 132.5,-520.07"/>
<polygon fill="black" stroke="black" points="136,-520.03 132.5,-510.03 129,-520.03 136,-520.03"/>
</g>
<!-- ak -->
<g id="node3" class="node">
<title>ak</title>
<polygon fill="#0369a1" stroke="black" points="181.5,-410 83.5,-410 83.5,-374 181.5,-374 181.5,-410"/>
<text text-anchor="middle" x="132.5" y="-395" font-family="Helvetica,sans-Serif" font-size="10.00" fill="white">auth&#45;keychain.el</text>
<text text-anchor="middle" x="132.5" y="-384" font-family="Helvetica,sans-Serif" font-size="10.00" fill="white">macOS Keychain</text>
</g>
<!-- ag&#45;&gt;ak -->
<g id="edge2" class="edge">
<title>ag&#45;&gt;ak</title>
<path fill="none" stroke="black" d="M132.5,-473.93C132.5,-459.12 132.5,-437.43 132.5,-420.23"/>
<polygon fill="black" stroke="black" points="136,-420.2 132.5,-410.2 129,-420.2 136,-420.2"/>
</g>
<!-- hook_ag -->
<g id="node5" class="node">
<title>hook_ag</title>
<polygon fill="#0d9488" stroke="black" points="388,-418 215,-418 215,-366 388,-366 388,-418"/>
<text text-anchor="middle" x="301.5" y="-406" font-family="Helvetica,sans-Serif" font-size="10.00" fill="white">after&#45;init&#45;hook #1:</text>
<text text-anchor="middle" x="301.5" y="-395" font-family="Helvetica,sans-Serif" font-size="10.00" fill="white">auth&#45;gpg&#45;&#45;configure&#45;sources</text>
<text text-anchor="middle" x="301.5" y="-384" font-family="Helvetica,sans-Serif" font-size="10.00" fill="white">→ prepend ~/.authinfo.gpg</text>
<text text-anchor="middle" x="301.5" y="-373" font-family="Helvetica,sans-Serif" font-size="10.00" fill="white">→ auth&#45;source&#45;forget&#45;all&#45;cached</text>
</g>
<!-- ag&#45;&gt;hook_ag -->
<g id="edge4" class="edge">
<title>ag&#45;&gt;hook_ag</title>
<path fill="none" stroke="#0d9488" stroke-dasharray="5,2" d="M161.94,-473.93C186.02,-459.96 220.67,-439.87 249.42,-423.2"/>
<polygon fill="#0d9488" stroke="#0d9488" points="251.24,-426.19 258.14,-418.15 247.73,-420.13 251.24,-426.19"/>
<text text-anchor="middle" x="258" y="-448.8" font-family="Helvetica,sans-Serif" font-size="9.00">registers on</text>
<text text-anchor="middle" x="258" y="-438.8" font-family="Helvetica,sans-Serif" font-size="9.00">after&#45;init&#45;hook</text>
</g>
<!-- dai -->
<g id="node4" class="node">
<title>dai</title>
<polygon fill="#9d174d" stroke="black" points="198,-329 67,-329 67,-293 198,-293 198,-329"/>
<text text-anchor="middle" x="132.5" y="-314" font-family="Helvetica,sans-Serif" font-size="10.00" fill="white">dev&#45;ai.el</text>
<text text-anchor="middle" x="132.5" y="-303" font-family="Helvetica,sans-Serif" font-size="10.00" fill="white">(loads AFTER auth&#45;gpg)</text>
</g>
<!-- ak&#45;&gt;dai -->
<!-- hook_dai -->
<g id="node6" class="node">
<title>hook_dai</title>
<polygon fill="#9d174d" stroke="black" points="299,-237 102,-237 102,-185 299,-185 299,-237"/>
<text text-anchor="middle" x="200.5" y="-225" font-family="Helvetica,sans-Serif" font-size="10.00" fill="white">after&#45;init&#45;hook #2:</text>
<text text-anchor="middle" x="200.5" y="-214" font-family="Helvetica,sans-Serif" font-size="10.00" fill="white">dev&#45;ai&#45;&#45;setup&#45;api&#45;key</text>
<text text-anchor="middle" x="200.5" y="-203" font-family="Helvetica,sans-Serif" font-size="10.00" fill="white">→ dev&#45;ai&#45;&#45;ensure&#45;authinfo&#45;in&#45;sources</text>
<text text-anchor="middle" x="200.5" y="-192" font-family="Helvetica,sans-Serif" font-size="10.00" fill="white">→ auth&#45;source&#45;search</text>
</g>
<!-- dai&#45;&gt;hook_dai -->
<g id="edge5" class="edge">
<title>dai&#45;&gt;hook_dai</title>
<path fill="none" stroke="#9d174d" stroke-dasharray="5,2" d="M144.34,-292.93C153.33,-279.97 165.98,-261.74 177,-245.86"/>
<polygon fill="#9d174d" stroke="#9d174d" points="180.1,-247.54 182.92,-237.33 174.35,-243.55 180.1,-247.54"/>
<text text-anchor="middle" x="202" y="-267.8" font-family="Helvetica,sans-Serif" font-size="9.00">registers on</text>
<text text-anchor="middle" x="202" y="-257.8" font-family="Helvetica,sans-Serif" font-size="9.00">after&#45;init&#45;hook</text>
</g>
<!-- hook_ag&#45;&gt;hook_dai -->
<g id="edge6" class="edge">
<title>hook_ag&#45;&gt;hook_dai</title>
<path fill="none" stroke="#f59e0b" d="M292.07,-365.87C280.98,-337.74 261.06,-291.35 237.5,-255 235.33,-251.66 232.92,-248.29 230.41,-245"/>
<polygon fill="#f59e0b" stroke="#f59e0b" points="232.99,-242.63 224,-237.03 227.53,-247.01 232.99,-242.63"/>
<text text-anchor="middle" x="318" y="-313.8" font-family="Helvetica,sans-Serif" font-size="9.00">fires FIRST</text>
<text text-anchor="middle" x="318" y="-303.8" font-family="Helvetica,sans-Serif" font-size="9.00">(registered earlier)</text>
</g>
<!-- search1 -->
<g id="node7" class="node">
<title>search1</title>
<polygon fill="#1e293b" stroke="black" points="189.5,-139 81.5,-139 81.5,-98 189.5,-98 189.5,-139"/>
<text text-anchor="middle" x="135.5" y="-127" font-family="Helvetica,sans-Serif" font-size="10.00" fill="#14b8a6">:host openrouter.ai</text>
<text text-anchor="middle" x="135.5" y="-116" font-family="Helvetica,sans-Serif" font-size="10.00" fill="#14b8a6">:user ac1965</text>
<text text-anchor="middle" x="135.5" y="-105" font-family="Helvetica,sans-Serif" font-size="10.00" fill="#14b8a6">:require &#39;(:secret)</text>
</g>
<!-- hook_dai&#45;&gt;search1 -->
<g id="edge7" class="edge">
<title>hook_dai&#45;&gt;search1</title>
<path fill="none" stroke="black" d="M182.39,-184.79C174.05,-173.17 164.12,-159.35 155.55,-147.42"/>
<polygon fill="black" stroke="black" points="158.27,-145.21 149.6,-139.13 152.59,-149.29 158.27,-145.21"/>
</g>
<!-- search2 -->
<g id="node8" class="node">
<title>search2</title>
<polygon fill="#1e293b" stroke="black" points="363,-139 244,-139 244,-98 363,-98 363,-139"/>
<text text-anchor="middle" x="303.5" y="-127" font-family="Helvetica,sans-Serif" font-size="10.00" fill="#14b8a6">:host api.openai.com</text>
<text text-anchor="middle" x="303.5" y="-116" font-family="Helvetica,sans-Serif" font-size="10.00" fill="#14b8a6">:user org&#45;ai</text>
<text text-anchor="middle" x="303.5" y="-105" font-family="Helvetica,sans-Serif" font-size="10.00" fill="#14b8a6">:require &#39;(:secret)</text>
</g>
<!-- hook_dai&#45;&gt;search2 -->
<g id="edge8" class="edge">
<title>hook_dai&#45;&gt;search2</title>
<path fill="none" stroke="black" stroke-dasharray="5,2" d="M229.19,-184.79C242.92,-172.72 259.37,-158.27 273.29,-146.04"/>
<polygon fill="black" stroke="black" points="275.96,-148.36 281.16,-139.13 271.34,-143.1 275.96,-148.36"/>
<text text-anchor="middle" x="290" y="-159.8" font-family="Helvetica,sans-Serif" font-size="9.00">if search1 fails</text>
</g>
<!-- found1 -->
<g id="node9" class="node">
<title>found1</title>
<polygon fill="#ecfdf5" stroke="black" points="197,-52 0,-52 0,0 197,0 197,-52"/>
<text text-anchor="middle" x="98.5" y="-40" font-family="Helvetica,sans-Serif" font-size="10.00" fill="#065f46">✓ router&#45;key found</text>
<text text-anchor="middle" x="98.5" y="-29" font-family="Helvetica,sans-Serif" font-size="10.00" fill="#065f46">setenv OPENAI_API_BASE openrouter</text>
<text text-anchor="middle" x="98.5" y="-18" font-family="Helvetica,sans-Serif" font-size="10.00" fill="#065f46">setenv OPENAI_API_KEY</text>
<text text-anchor="middle" x="98.5" y="-7" font-family="Helvetica,sans-Serif" font-size="10.00" fill="#065f46">setopt aidermacs&#45;default&#45;model</text>
</g>
<!-- search1&#45;&gt;found1 -->
<g id="edge9" class="edge">
<title>search1&#45;&gt;found1</title>
<path fill="none" stroke="black" d="M127.47,-97.86C123.14,-87.28 117.68,-73.91 112.66,-61.64"/>
<polygon fill="black" stroke="black" points="115.79,-60.05 108.77,-52.11 109.31,-62.69 115.79,-60.05"/>
</g>
<!-- found2 -->
<g id="node10" class="node">
<title>found2</title>
<polygon fill="#ecfdf5" stroke="black" points="392,-46.5 215,-46.5 215,-5.5 392,-5.5 392,-46.5"/>
<text text-anchor="middle" x="303.5" y="-34.5" font-family="Helvetica,sans-Serif" font-size="10.00" fill="#065f46">✓ openai&#45;key found (fallback)</text>
<text text-anchor="middle" x="303.5" y="-23.5" font-family="Helvetica,sans-Serif" font-size="10.00" fill="#065f46">setenv OPENAI_API_BASE openai</text>
<text text-anchor="middle" x="303.5" y="-12.5" font-family="Helvetica,sans-Serif" font-size="10.00" fill="#065f46">setenv OPENAI_API_KEY</text>
</g>
<!-- search2&#45;&gt;found2 -->
<g id="edge10" class="edge">
<title>search2&#45;&gt;found2</title>
<path fill="none" stroke="black" d="M303.5,-97.86C303.5,-85.88 303.5,-70.34 303.5,-56.86"/>
<polygon fill="black" stroke="black" points="307,-56.6 303.5,-46.6 300,-56.6 307,-56.6"/>
</g>
<!-- warn -->
<g id="node11" class="node">
<title>warn</title>
<polygon fill="#fef2f2" stroke="black" points="562.5,-44 410.5,-44 410.5,-8 562.5,-8 562.5,-44"/>
<text text-anchor="middle" x="486.5" y="-29" font-family="Helvetica,sans-Serif" font-size="10.00" fill="#991b1b">✗ no key found</text>
<text text-anchor="middle" x="486.5" y="-18" font-family="Helvetica,sans-Serif" font-size="10.00" fill="#991b1b">display&#45;warning &#39;aidermacs</text>
</g>
<!-- search2&#45;&gt;warn -->
<g id="edge11" class="edge">
<title>search2&#45;&gt;warn</title>
<path fill="none" stroke="black" stroke-dasharray="5,2" d="M343.21,-97.86C372.65,-83.31 412.75,-63.47 443.04,-48.49"/>
<polygon fill="black" stroke="black" points="444.69,-51.58 452.1,-44.01 441.59,-45.31 444.69,-51.58"/>
<text text-anchor="middle" x="417.5" y="-72.8" font-family="Helvetica,sans-Serif" font-size="9.00">if also fails</text>
</g>
</g>
</svg>
