<?xml version="1.0" encoding="UTF-8" standalone="no"?>
<!DOCTYPE svg PUBLIC "-//W3C//DTD SVG 1.1//EN"
 "http://www.w3.org/Graphics/SVG/1.1/DTD/svg11.dtd">
<!-- Generated by graphviz version 2.43.0 (0)
 -->
<!-- Title: capf_dispatch Pages: 1 -->
<svg width="905pt" height="493pt"
 viewBox="0.00 0.00 905.00 493.00" xmlns="http://www.w3.org/2000/svg" xmlns:xlink="http://www.w3.org/1999/xlink">
<g id="graph0" class="graph" transform="scale(1 1) rotate(0) translate(4 489)">
<title>capf_dispatch</title>
<g id="clust1" class="cluster">
<title>cluster_base</title>
<polygon fill="#f0fdf4" stroke="#047857" points="13,-8 13,-305 177,-305 177,-8 13,-8"/>
<text text-anchor="middle" x="95" y="-289.8" font-family="Times,serif" font-size="14.00">Base CAPF Stacks</text>
</g>
<g id="clust2" class="cluster">
<title>cluster_orgsrc</title>
<polygon fill="#ede9fe" stroke="#6d28d9" points="8,-313 8,-477 889,-477 889,-313 8,-313"/>
<text text-anchor="middle" x="448.5" y="-461.8" font-family="Times,serif" font-size="14.00">capf&#45;org&#45;src family</text>
<text text-anchor="middle" x="448.5" y="-446.8" font-family="Times,serif" font-size="14.00">(Org SRC block dispatch)</text>
</g>
<g id="clust3" class="cluster">
<title>cluster_coop</title>
<polygon fill="#fffbeb" stroke="#f59e0b" points="227,-176 227,-305 407,-305 407,-176 227,-176"/>
<text text-anchor="middle" x="317" y="-289.8" font-family="Times,serif" font-size="14.00">Cooperating modules</text>
</g>
<!-- e1 -->
<g id="node1" class="node">
<title>e1</title>
<polygon fill="#047857" stroke="black" points="169,-274 21,-274 21,-236 169,-236 169,-274"/>
<text text-anchor="middle" x="95" y="-262.8" font-family="monospace" font-size="9.00" fill="white">emacs&#45;lisp&#45;mode&#45;hook</text>
<text text-anchor="middle" x="95" y="-252.8" font-family="monospace" font-size="9.00" fill="white">→ cape&#45;elisp&#45;symbol</text>
<text text-anchor="middle" x="95" y="-242.8" font-family="monospace" font-size="9.00" fill="white"> &#160;&#160;cape&#45;file cape&#45;dabbrev</text>
</g>
<!-- e2 -->
<g id="node2" class="node">
<title>e2</title>
<polygon fill="#065f46" stroke="black" points="169,-218 21,-218 21,-180 169,-180 169,-218"/>
<text text-anchor="middle" x="95" y="-206.8" font-family="monospace" font-size="9.00" fill="white">prog&#45;mode&#45;hook</text>
<text text-anchor="middle" x="95" y="-196.8" font-family="monospace" font-size="9.00" fill="white">→ ...existing...</text>
<text text-anchor="middle" x="95" y="-186.8" font-family="monospace" font-size="9.00" fill="white"> &#160;&#160;cape&#45;file cape&#45;dabbrev</text>
</g>
<!-- e3 -->
<g id="node3" class="node">
<title>e3</title>
<polygon fill="#16a34a" stroke="black" points="166.5,-162 23.5,-162 23.5,-126 166.5,-126 166.5,-162"/>
<text text-anchor="middle" x="95" y="-146.8" font-family="monospace" font-size="9.00" fill="white">text&#45;mode&#45;hook</text>
<text text-anchor="middle" x="95" y="-136.8" font-family="monospace" font-size="9.00" fill="white">→ cape&#45;dabbrev cape&#45;file</text>
</g>
<!-- e4 -->
<g id="node4" class="node">
<title>e4</title>
<polygon fill="#15803d" stroke="black" points="166.5,-108 23.5,-108 23.5,-70 166.5,-70 166.5,-108"/>
<text text-anchor="middle" x="95" y="-96.8" font-family="monospace" font-size="9.00" fill="white">org&#45;mode&#45;hook</text>
<text text-anchor="middle" x="95" y="-86.8" font-family="monospace" font-size="9.00" fill="white">→ cape&#45;dabbrev cape&#45;file</text>
<text text-anchor="middle" x="95" y="-76.8" font-family="monospace" font-size="9.00" fill="white"> &#160;&#160;cape&#45;tex</text>
</g>
<!-- e5 -->
<g id="node5" class="node">
<title>e5</title>
<polygon fill="#166534" stroke="black" points="166.5,-52 23.5,-52 23.5,-16 166.5,-16 166.5,-52"/>
<text text-anchor="middle" x="95" y="-36.8" font-family="monospace" font-size="9.00" fill="white">sh/eshell&#45;mode&#45;hook</text>
<text text-anchor="middle" x="95" y="-26.8" font-family="monospace" font-size="9.00" fill="white">→ cape&#45;file cape&#45;dabbrev</text>
</g>
<!-- trigger -->
<g id="node6" class="node">
<title>trigger</title>
<polygon fill="#6d28d9" stroke="black" points="174,-357 16,-357 16,-321 174,-321 174,-357"/>
<text text-anchor="middle" x="95" y="-341.8" font-family="monospace" font-size="9.00" fill="white">org&#45;src&#45;mode&#45;hook</text>
<text text-anchor="middle" x="95" y="-331.8" font-family="monospace" font-size="9.00" fill="white">→ completion&#45;&#45;org&#45;src&#45;capfs</text>
</g>
<!-- d1 -->
<g id="node7" class="node">
<title>d1</title>
<polygon fill="#f5f3ff" stroke="black" points="317,-377 211,-349 317,-321 423,-349 317,-377"/>
<text text-anchor="middle" x="317" y="-351.8" font-family="monospace" font-size="9.00" fill="#4c1d95">derived&#45;mode&#45;p</text>
<text text-anchor="middle" x="317" y="-341.8" font-family="monospace" font-size="9.00" fill="#4c1d95">&#39;emacs&#45;lisp&#45;mode?</text>
</g>
<!-- trigger&#45;&gt;d1 -->
<g id="edge1" class="edge">
<title>trigger&#45;&gt;d1</title>
<path fill="none" stroke="black" d="M174.21,-348C174.21,-348 204.55,-348 204.55,-348"/>
<polygon fill="black" stroke="black" points="204.55,-351.5 214.55,-348 204.55,-344.5 204.55,-351.5"/>
</g>
<!-- cm1 -->
<g id="node12" class="node">
<title>cm1</title>
<polygon fill="#f59e0b" stroke="black" points="396,-274 238,-274 238,-238 396,-238 396,-274"/>
<text text-anchor="middle" x="317" y="-258.8" font-family="monospace" font-size="9.00" fill="white">completion&#45;corfu&#45;org&#45;src</text>
<text text-anchor="middle" x="317" y="-248.8" font-family="monospace" font-size="9.00" fill="white">corfu&#45;mode in edit&#45;indirect</text>
</g>
<!-- trigger&#45;&gt;cm1 -->
<g id="edge6" class="edge">
<title>trigger&#45;&gt;cm1</title>
<path fill="none" stroke="black" stroke-dasharray="5,2" d="M174.09,-339C188.46,-339 199,-339 199,-339 199,-339 199,-256 199,-256 199,-256 227.96,-256 227.96,-256"/>
<polygon fill="black" stroke="black" points="227.96,-259.5 237.96,-256 227.96,-252.5 227.96,-259.5"/>
</g>
<!-- cm2 -->
<g id="node13" class="node">
<title>cm2</title>
<polygon fill="#d97706" stroke="black" points="399,-220 235,-220 235,-184 399,-184 399,-220"/>
<text text-anchor="middle" x="317" y="-204.8" font-family="monospace" font-size="9.00" fill="white">completion&#45;orderless&#45;org&#45;src</text>
<text text-anchor="middle" x="317" y="-194.8" font-family="monospace" font-size="9.00" fill="white">orderless style override</text>
</g>
<!-- trigger&#45;&gt;cm2 -->
<g id="edge7" class="edge">
<title>trigger&#45;&gt;cm2</title>
<path fill="none" stroke="black" stroke-dasharray="5,2" d="M174.21,-330C181.95,-330 187,-330 187,-330 187,-330 187,-201 187,-201 187,-201 224.67,-201 224.67,-201"/>
<polygon fill="black" stroke="black" points="224.67,-204.5 234.67,-201 224.67,-197.5 224.67,-204.5"/>
</g>
<!-- d2 -->
<g id="node8" class="node">
<title>d2</title>
<polygon fill="#f5f3ff" stroke="black" points="565,-377 475,-349 565,-321 655,-349 565,-377"/>
<text text-anchor="middle" x="565" y="-351.8" font-family="monospace" font-size="9.00" fill="#4c1d95">derived&#45;mode&#45;p</text>
<text text-anchor="middle" x="565" y="-341.8" font-family="monospace" font-size="9.00" fill="#4c1d95">&#39;prog&#45;mode?</text>
</g>
<!-- d1&#45;&gt;d2 -->
<g id="edge3" class="edge">
<title>d1&#45;&gt;d2</title>
<path fill="none" stroke="black" d="M423.25,-349C423.25,-349 464.95,-349 464.95,-349"/>
<polygon fill="black" stroke="black" points="464.95,-352.5 474.95,-349 464.95,-345.5 464.95,-352.5"/>
<text text-anchor="middle" x="449" y="-351.6" font-family="Helvetica,sans-Serif" font-size="8.00">NO</text>
</g>
<!-- r1 -->
<g id="node9" class="node">
<title>r1</title>
<polygon fill="#1d4ed8" stroke="black" points="626,-431 504,-431 504,-395 626,-395 626,-431"/>
<text text-anchor="middle" x="565" y="-415.8" font-family="monospace" font-size="9.00" fill="white">→ elisp&#45;capfs</text>
<text text-anchor="middle" x="565" y="-405.8" font-family="monospace" font-size="9.00" fill="white">cape&#45;elisp&#45;symbol...</text>
</g>
<!-- d1&#45;&gt;r1 -->
<g id="edge2" class="edge">
<title>d1&#45;&gt;r1</title>
<path fill="none" stroke="black" d="M317,-377.26C317,-394.4 317,-413 317,-413 317,-413 493.7,-413 493.7,-413"/>
<polygon fill="black" stroke="black" points="493.7,-416.5 503.7,-413 493.7,-409.5 493.7,-416.5"/>
<text text-anchor="middle" x="449" y="-399.6" font-family="Helvetica,sans-Serif" font-size="8.00">YES</text>
</g>
<!-- r2 -->
<g id="node10" class="node">
<title>r2</title>
<polygon fill="#047857" stroke="black" points="881,-362 744,-362 744,-326 881,-326 881,-362"/>
<text text-anchor="middle" x="812.5" y="-346.8" font-family="monospace" font-size="9.00" fill="white">→ prog&#45;capfs</text>
<text text-anchor="middle" x="812.5" y="-336.8" font-family="monospace" font-size="9.00" fill="white">...existing + cape&#45;file</text>
</g>
<!-- d2&#45;&gt;r2 -->
<g id="edge4" class="edge">
<title>d2&#45;&gt;r2</title>
<path fill="none" stroke="black" d="M639.26,-344C639.26,-344 733.79,-344 733.79,-344"/>
<polygon fill="black" stroke="black" points="733.79,-347.5 743.79,-344 733.79,-340.5 733.79,-347.5"/>
<text text-anchor="middle" x="699.5" y="-348.6" font-family="Helvetica,sans-Serif" font-size="8.00">YES</text>
</g>
<!-- r3 -->
<g id="node11" class="node">
<title>r3</title>
<polygon fill="#374151" stroke="black" points="878.5,-416 746.5,-416 746.5,-380 878.5,-380 878.5,-416"/>
<text text-anchor="middle" x="812.5" y="-400.8" font-family="monospace" font-size="9.00" fill="white">→ text&#45;capfs</text>
<text text-anchor="middle" x="812.5" y="-390.8" font-family="monospace" font-size="9.00" fill="white">cape&#45;dabbrev cape&#45;file</text>
</g>
<!-- d2&#45;&gt;r3 -->
<g id="edge5" class="edge">
<title>d2&#45;&gt;r3</title>
<path fill="none" stroke="black" d="M641,-353.42C641,-363.53 641,-387.5 641,-387.5 641,-387.5 736.19,-387.5 736.19,-387.5"/>
<polygon fill="black" stroke="black" points="736.19,-391 746.19,-387.5 736.19,-384 736.19,-391"/>
<text text-anchor="middle" x="699.5" y="-391.6" font-family="Helvetica,sans-Serif" font-size="8.00">NO (fallback)</text>
</g>
</g>
</svg>
