<?xml version="1.0" encoding="UTF-8" standalone="no"?>
<!DOCTYPE svg PUBLIC "-//W3C//DTD SVG 1.1//EN"
 "http://www.w3.org/Graphics/SVG/1.1/DTD/svg11.dtd">
<!-- Generated by graphviz version 2.43.0 (0)
 -->
<!-- Title: lsp_agnostic Pages: 1 -->
<svg width="601pt" height="300pt"
 viewBox="0.00 0.00 600.50 300.00" xmlns="http://www.w3.org/2000/svg" xmlns:xlink="http://www.w3.org/1999/xlink">
<g id="graph0" class="graph" transform="scale(1 1) rotate(0) translate(4 296)">
<title>lsp_agnostic</title>
<g id="clust1" class="cluster">
<title>cluster_facade</title>
<polygon fill="#e0f2f1" stroke="#0d9488" points="8,-145 8,-220 426,-220 426,-145 8,-145"/>
<text text-anchor="middle" x="217" y="-204.8" font-family="Times,serif" font-size="14.00">dev&#45;lsp&#45;bridge.el &#160;[FACADE — loaded FIRST in dev/]</text>
</g>
<g id="clust2" class="cluster">
<title>cluster_be</title>
<polygon fill="#f8fafc" stroke="#94a3b8" points="183,-8 183,-99 575,-99 575,-8 183,-8"/>
<text text-anchor="middle" x="379" y="-83.8" font-family="Times,serif" font-size="14.00">Backends (autoload&#45;only — NOT in my:modules)</text>
</g>
<!-- keymap -->
<g id="node1" class="node">
<title>keymap</title>
<polygon fill="#f1f5f9" stroke="black" points="430.5,-292 275.5,-292 275.5,-256 430.5,-256 430.5,-292"/>
<text text-anchor="middle" x="353" y="-277" font-family="Helvetica,sans-Serif" font-size="10.00" fill="#334155">ui&#45;keymap.el</text>
<text text-anchor="middle" x="353" y="-266" font-family="Helvetica,sans-Serif" font-size="10.00" fill="#334155">(binds dev&#45;lsp&#45;* commands)</text>
</g>
<!-- f1 -->
<g id="node2" class="node">
<title>f1</title>
<polygon fill="#0d9488" stroke="black" points="417.5,-189 288.5,-189 288.5,-153 417.5,-153 417.5,-189"/>
<text text-anchor="middle" x="353" y="-168.5" font-family="Helvetica,sans-Serif" font-size="10.00" fill="white">dev&#45;lsp&#45;code&#45;actions ()</text>
</g>
<!-- keymap&#45;&gt;f1 -->
<g id="edge1" class="edge">
<title>keymap&#45;&gt;f1</title>
<path fill="none" stroke="black" d="M353,-255.87C353,-240.41 353,-217.42 353,-199.41"/>
<polygon fill="black" stroke="black" points="356.5,-199.22 353,-189.22 349.5,-199.22 356.5,-199.22"/>
<text text-anchor="middle" x="394" y="-230.8" font-family="Helvetica,sans-Serif" font-size="9.00">binds at load time</text>
</g>
<!-- be1 -->
<g id="node6" class="node">
<title>be1</title>
<polygon fill="#1e40af" stroke="black" points="329,-68 191,-68 191,-16 329,-16 329,-68"/>
<text text-anchor="middle" x="260" y="-56" font-family="Helvetica,sans-Serif" font-size="10.00" fill="white">dev&#45;lsp&#45;eglot</text>
<text text-anchor="middle" x="260" y="-45" font-family="Helvetica,sans-Serif" font-size="10.00" fill="white">(Emacs built&#45;in 30+)</text>
<text text-anchor="middle" x="260" y="-34" font-family="Helvetica,sans-Serif" font-size="10.00" fill="white">eglot&#45;ensure</text>
<text text-anchor="middle" x="260" y="-23" font-family="Helvetica,sans-Serif" font-size="10.00" fill="white">guard: eglot&#45;guessable&#45;p</text>
</g>
<!-- f1&#45;&gt;be1 -->
<g id="edge5" class="edge">
<title>f1&#45;&gt;be1</title>
<path fill="none" stroke="#94a3b8" stroke-dasharray="1,5" d="M319.1,-152.96C308.25,-146.14 297,-137.4 289,-127 278.12,-112.86 271.15,-94.35 266.78,-78.3"/>
<polygon fill="#94a3b8" stroke="#94a3b8" points="270.07,-77.05 264.27,-68.19 263.28,-78.73 270.07,-77.05"/>
<text text-anchor="middle" x="324" y="-119.8" font-family="Helvetica,sans-Serif" font-size="9.00">dispatches to</text>
<text text-anchor="middle" x="324" y="-109.8" font-family="Helvetica,sans-Serif" font-size="9.00">active backend</text>
</g>
<!-- be2 -->
<g id="node7" class="node">
<title>be2</title>
<polygon fill="#166534" stroke="black" points="451,-68 347,-68 347,-16 451,-16 451,-68"/>
<text text-anchor="middle" x="399" y="-56" font-family="Helvetica,sans-Serif" font-size="10.00" fill="white">dev&#45;lsp&#45;mode</text>
<text text-anchor="middle" x="399" y="-45" font-family="Helvetica,sans-Serif" font-size="10.00" fill="white">lsp&#45;mode + lsp&#45;ui</text>
<text text-anchor="middle" x="399" y="-34" font-family="Helvetica,sans-Serif" font-size="10.00" fill="white">lsp&#45;deferred</text>
<text text-anchor="middle" x="399" y="-23" font-family="Helvetica,sans-Serif" font-size="10.00" fill="white">:none completion</text>
</g>
<!-- f1&#45;&gt;be2 -->
<g id="edge6" class="edge">
<title>f1&#45;&gt;be2</title>
<path fill="none" stroke="#94a3b8" stroke-dasharray="1,5" d="M356.03,-152.86C358.55,-140.03 362.6,-122.14 368,-107 371.51,-97.14 376.1,-86.8 380.66,-77.37"/>
<polygon fill="#94a3b8" stroke="#94a3b8" points="383.85,-78.81 385.17,-68.3 377.58,-75.69 383.85,-78.81"/>
</g>
<!-- be3 -->
<g id="node8" class="node">
<title>be3</title>
<polygon fill="#9d174d" stroke="black" points="567,-68 469,-68 469,-16 567,-16 567,-68"/>
<text text-anchor="middle" x="518" y="-56" font-family="Helvetica,sans-Serif" font-size="10.00" fill="white">dev&#45;lsp&#45;bridge</text>
<text text-anchor="middle" x="518" y="-45" font-family="Helvetica,sans-Serif" font-size="10.00" fill="white">(3rd party)</text>
<text text-anchor="middle" x="518" y="-34" font-family="Helvetica,sans-Serif" font-size="10.00" fill="white">lsp&#45;bridge&#45;mode</text>
<text text-anchor="middle" x="518" y="-23" font-family="Helvetica,sans-Serif" font-size="10.00" fill="white">external process</text>
</g>
<!-- f1&#45;&gt;be3 -->
<g id="edge7" class="edge">
<title>f1&#45;&gt;be3</title>
<path fill="none" stroke="#94a3b8" stroke-dasharray="1,5" d="M382.23,-152.76C404.36,-139.2 435.11,-119.27 460,-99 468.89,-91.76 478.03,-83.42 486.35,-75.42"/>
<polygon fill="#94a3b8" stroke="#94a3b8" points="489.02,-77.71 493.73,-68.22 484.13,-72.7 489.02,-77.71"/>
</g>
<!-- f2 -->
<g id="node3" class="node">
<title>f2</title>
<polygon fill="#0f766e" stroke="black" points="270,-189 166,-189 166,-153 270,-153 270,-189"/>
<text text-anchor="middle" x="218" y="-168.5" font-family="Helvetica,sans-Serif" font-size="10.00" fill="white">dev&#45;lsp&#45;rename ()</text>
</g>
<!-- f3 -->
<g id="node4" class="node">
<title>f3</title>
<polygon fill="#0f766e" stroke="black" points="148,-189 16,-189 16,-153 148,-153 148,-189"/>
<text text-anchor="middle" x="82" y="-168.5" font-family="Helvetica,sans-Serif" font-size="10.00" fill="white">dev&#45;lsp&#45;format&#45;buffer ()</text>
</g>
<!-- cs -->
<g id="node5" class="node">
<title>cs</title>
<polygon fill="#1d4ed8" stroke="black" points="592.5,-197 435.5,-197 435.5,-145 592.5,-145 592.5,-197"/>
<text text-anchor="middle" x="514" y="-185" font-family="Helvetica,sans-Serif" font-size="10.00" fill="white">core&#45;switches.el</text>
<text text-anchor="middle" x="514" y="-174" font-family="Helvetica,sans-Serif" font-size="10.00" fill="white">my:use&#45;lsp defcustom</text>
<text text-anchor="middle" x="514" y="-163" font-family="Helvetica,sans-Serif" font-size="10.00" fill="white">&#39;eglot | &#39;lsp | &#39;bridge | nil</text>
<text text-anchor="middle" x="514" y="-152" font-family="Helvetica,sans-Serif" font-size="10.00" fill="white">→ dispatch on after&#45;init&#45;hook</text>
</g>
<!-- cs&#45;&gt;be1 -->
<g id="edge2" class="edge">
<title>cs&#45;&gt;be1</title>
<path fill="none" stroke="black" stroke-dasharray="5,2" d="M457.09,-144.9C429,-132.86 394.46,-118.57 363,-107 352.05,-102.97 348.42,-104.24 338,-99 324.45,-92.18 310.68,-83.13 298.55,-74.3"/>
<polygon fill="black" stroke="black" points="300.55,-71.43 290.44,-68.26 296.37,-77.04 300.55,-71.43"/>
<text text-anchor="middle" x="426.5" y="-114.8" font-family="Helvetica,sans-Serif" font-size="9.00">&#39;eglot</text>
</g>
<!-- cs&#45;&gt;be2 -->
<g id="edge3" class="edge">
<title>cs&#45;&gt;be2</title>
<path fill="none" stroke="black" stroke-dasharray="5,2" d="M491.28,-144.91C473.32,-125.08 448.12,-97.25 428.59,-75.68"/>
<polygon fill="black" stroke="black" points="430.98,-73.1 421.67,-68.04 425.79,-77.8 430.98,-73.1"/>
<text text-anchor="middle" x="481" y="-114.8" font-family="Helvetica,sans-Serif" font-size="9.00">&#39;lsp</text>
</g>
<!-- cs&#45;&gt;be3 -->
<g id="edge4" class="edge">
<title>cs&#45;&gt;be3</title>
<path fill="none" stroke="black" stroke-dasharray="5,2" d="M514.79,-144.91C515.39,-125.86 516.22,-99.43 516.89,-78.26"/>
<polygon fill="black" stroke="black" points="520.39,-78.14 517.21,-68.04 513.4,-77.92 520.39,-78.14"/>
<text text-anchor="middle" x="531" y="-114.8" font-family="Helvetica,sans-Serif" font-size="9.00">&#39;bridge</text>
</g>
</g>
</svg>
