<?xml version="1.0" encoding="UTF-8" standalone="no"?>
<!DOCTYPE svg PUBLIC "-//W3C//DTD SVG 1.1//EN"
 "http://www.w3.org/Graphics/SVG/1.1/DTD/svg11.dtd">
<!-- Generated by graphviz version 2.43.0 (0)
 -->
<!-- Title: orgtangle_hugo Pages: 1 -->
<svg width="530pt" height="208pt"
 viewBox="0.00 0.00 530.00 208.00" xmlns="http://www.w3.org/2000/svg" xmlns:xlink="http://www.w3.org/1999/xlink">
<g id="graph0" class="graph" transform="scale(1 1) rotate(0) translate(4 204)">
<title>orgtangle_hugo</title>
<polygon fill="white" stroke="transparent" points="-4,4 -4,-204 526,-204 526,4 -4,4"/>
<!-- savehook -->
<g id="node1" class="node">
<title>savehook</title>
<path fill="#f1efe8" stroke="#5f5e5a" d="M167,-200C167,-200 12,-200 12,-200 6,-200 0,-194 0,-188 0,-188 0,-176 0,-176 0,-170 6,-164 12,-164 12,-164 167,-164 167,-164 173,-164 179,-170 179,-176 179,-176 179,-188 179,-188 179,-194 173,-200 167,-200"/>
<text text-anchor="middle" x="89.5" y="-185.2" font-family="Noto Sans CJK JP" font-size="11.00" fill="#2c2c2a">after&#45;save&#45;hook</text>
<text text-anchor="middle" x="89.5" y="-173.2" font-family="Noto Sans CJK JP" font-size="11.00" fill="#2c2c2a">(README.orgのみ、buffer&#45;local)</text>
</g>
<!-- tangle -->
<g id="node2" class="node">
<title>tangle</title>
<path fill="#f1efe8" stroke="#5f5e5a" d="M157,-127C157,-127 22,-127 22,-127 16,-127 10,-121 10,-115 10,-115 10,-95 10,-95 10,-89 16,-83 22,-83 22,-83 157,-83 157,-83 163,-83 169,-89 169,-95 169,-95 169,-115 169,-115 169,-121 163,-127 157,-127"/>
<text text-anchor="middle" x="89.5" y="-114.2" font-family="Noto Sans CJK JP" font-size="11.00" fill="#2c2c2a">orgx&#45;auto&#45;tangle</text>
<text text-anchor="middle" x="89.5" y="-102.2" font-family="Noto Sans CJK JP" font-size="11.00" fill="#2c2c2a">declare&#45;functionで宣言のみ</text>
<text text-anchor="middle" x="89.5" y="-90.2" font-family="Noto Sans CJK JP" font-size="11.00" fill="#2c2c2a">実行時にob&#45;tangleをrequire</text>
</g>
<!-- savehook&#45;&gt;tangle -->
<g id="edge1" class="edge">
<title>savehook&#45;&gt;tangle</title>
<path fill="none" stroke="#5f5e5a" d="M89.5,-163.98C89.5,-156.15 89.5,-146.61 89.5,-137.54"/>
<polygon fill="#5f5e5a" stroke="#5f5e5a" points="93,-137.24 89.5,-127.24 86,-137.24 93,-137.24"/>
</g>
<!-- tangleok -->
<g id="node5" class="node">
<title>tangleok</title>
<path fill="#e1f5ee" stroke="#0f6e56" d="M140.5,-36C140.5,-36 38.5,-36 38.5,-36 32.5,-36 26.5,-30 26.5,-24 26.5,-24 26.5,-12 26.5,-12 26.5,-6 32.5,0 38.5,0 38.5,0 140.5,0 140.5,0 146.5,0 152.5,-6 152.5,-12 152.5,-12 152.5,-24 152.5,-24 152.5,-30 146.5,-36 140.5,-36"/>
<text text-anchor="middle" x="89.5" y="-15.2" font-family="Noto Sans CJK JP" font-size="11.00" fill="#04342c">org&#45;babel&#45;tangle 実行</text>
</g>
<!-- tangle&#45;&gt;tangleok -->
<g id="edge2" class="edge">
<title>tangle&#45;&gt;tangleok</title>
<path fill="none" stroke="#5f5e5a" d="M89.5,-82.99C89.5,-71.92 89.5,-58.22 89.5,-46.34"/>
<polygon fill="#5f5e5a" stroke="#5f5e5a" points="93,-46.06 89.5,-36.06 86,-46.06 93,-46.06"/>
</g>
<!-- capturehook -->
<g id="node3" class="node">
<title>capturehook</title>
<path fill="#f1efe8" stroke="#5f5e5a" d="M414,-200C414,-200 263,-200 263,-200 257,-200 251,-194 251,-188 251,-188 251,-176 251,-176 251,-170 257,-164 263,-164 263,-164 414,-164 414,-164 420,-164 426,-170 426,-176 426,-176 426,-188 426,-188 426,-194 420,-200 414,-200"/>
<text text-anchor="middle" x="338.5" y="-179.2" font-family="Noto Sans CJK JP" font-size="11.00" fill="#2c2c2a">org&#45;capture&#45;after&#45;finalize&#45;hook</text>
</g>
<!-- hugo -->
<g id="node4" class="node">
<title>hugo</title>
<path fill="#f1efe8" stroke="#5f5e5a" d="M402.5,-123C402.5,-123 274.5,-123 274.5,-123 268.5,-123 262.5,-117 262.5,-111 262.5,-111 262.5,-99 262.5,-99 262.5,-93 268.5,-87 274.5,-87 274.5,-87 402.5,-87 402.5,-87 408.5,-87 414.5,-93 414.5,-99 414.5,-99 414.5,-111 414.5,-111 414.5,-117 408.5,-123 402.5,-123"/>
<text text-anchor="middle" x="338.5" y="-108.2" font-family="Noto Sans CJK JP" font-size="11.00" fill="#2c2c2a">orgx&#45;auto&#45;hugo</text>
<text text-anchor="middle" x="338.5" y="-96.2" font-family="Noto Sans CJK JP" font-size="11.00" fill="#2c2c2a">実行時にox&#45;hugoをrequire</text>
</g>
<!-- capturehook&#45;&gt;hugo -->
<g id="edge3" class="edge">
<title>capturehook&#45;&gt;hugo</title>
<path fill="none" stroke="#5f5e5a" d="M338.5,-163.98C338.5,-154.94 338.5,-143.6 338.5,-133.35"/>
<polygon fill="#5f5e5a" stroke="#5f5e5a" points="342,-133.21 338.5,-123.21 335,-133.21 342,-133.21"/>
</g>
<!-- hugoexport -->
<g id="node6" class="node">
<title>hugoexport</title>
<path fill="#e1f5ee" stroke="#0f6e56" d="M338.5,-36C338.5,-36 234.5,-36 234.5,-36 228.5,-36 222.5,-30 222.5,-24 222.5,-24 222.5,-12 222.5,-12 222.5,-6 228.5,0 234.5,0 234.5,0 338.5,0 338.5,0 344.5,0 350.5,-6 350.5,-12 350.5,-12 350.5,-24 350.5,-24 350.5,-30 344.5,-36 338.5,-36"/>
<text text-anchor="middle" x="286.5" y="-15.2" font-family="Noto Sans CJK JP" font-size="11.00" fill="#04342c">ox&#45;hugo エクスポート</text>
</g>
<!-- hugo&#45;&gt;hugoexport -->
<g id="edge4" class="edge">
<title>hugo&#45;&gt;hugoexport</title>
<path fill="none" stroke="#5f5e5a" d="M327.98,-86.8C320.65,-74.82 310.74,-58.62 302.44,-45.06"/>
<polygon fill="#5f5e5a" stroke="#5f5e5a" points="305.21,-42.88 297.01,-36.18 299.24,-46.53 305.21,-42.88"/>
<text text-anchor="middle" x="334.5" y="-57" font-family="Noto Sans CJK JP" font-size="10.00" fill="#5f5e5a">通常確定</text>
</g>
<!-- abort -->
<g id="node7" class="node">
<title>abort</title>
<path fill="#fcebeb" stroke="#a32d2d" d="M510,-36C510,-36 381,-36 381,-36 375,-36 369,-30 369,-24 369,-24 369,-12 369,-12 369,-6 375,0 381,0 381,0 510,0 510,0 516,0 522,-6 522,-12 522,-12 522,-24 522,-24 522,-30 516,-36 510,-36"/>
<text text-anchor="middle" x="445.5" y="-21.2" font-family="Noto Sans CJK JP" font-size="11.00" fill="#501313">org&#45;note&#45;abort が非nil</text>
<text text-anchor="middle" x="445.5" y="-9.2" font-family="Noto Sans CJK JP" font-size="11.00" fill="#501313">→ エクスポートをスキップ</text>
</g>
<!-- hugo&#45;&gt;abort -->
<g id="edge5" class="edge">
<title>hugo&#45;&gt;abort</title>
<path fill="none" stroke="#5f5e5a" d="M360.15,-86.8C376.11,-74.13 398,-56.73 415.62,-42.74"/>
<polygon fill="#5f5e5a" stroke="#5f5e5a" points="418.23,-45.14 423.88,-36.18 413.87,-39.66 418.23,-45.14"/>
<text text-anchor="middle" x="443" y="-57" font-family="Noto Sans CJK JP" font-size="10.00" fill="#5f5e5a">C&#45;c C&#45;kでキャンセル</text>
</g>
</g>
</svg>
