<?xml version="1.0" encoding="UTF-8" standalone="no"?>
<!DOCTYPE svg PUBLIC "-//W3C//DTD SVG 1.1//EN"
 "http://www.w3.org/Graphics/SVG/1.1/DTD/svg11.dtd">
<!-- Generated by graphviz version 2.43.0 (0)
 -->
<!-- Title: orgtangle Pages: 1 -->
<svg width="1419pt" height="342pt"
 viewBox="0.00 0.00 1419.00 342.00" xmlns="http://www.w3.org/2000/svg" xmlns:xlink="http://www.w3.org/1999/xlink">
<g id="graph0" class="graph" transform="scale(1 1) rotate(0) translate(4 338)">
<title>orgtangle</title>
<g id="clust1" class="cluster">
<title>cluster_tangle</title>
<polygon fill="#ecfdf5" stroke="#047857" points="14,-8 14,-151 1079,-151 1079,-8 14,-8"/>
<text text-anchor="middle" x="546.5" y="-135.8" font-family="Times,serif" font-size="14.00">orgx&#45;auto&#45;tangle.el</text>
</g>
<g id="clust2" class="cluster">
<title>cluster_hugo</title>
<polygon fill="#fffbeb" stroke="#d97706" points="8,-159 8,-326 1403,-326 1403,-159 8,-159"/>
<text text-anchor="middle" x="705.5" y="-310.8" font-family="Times,serif" font-size="14.00">orgx&#45;auto&#45;hugo.el</text>
</g>
<!-- om -->
<g id="node1" class="node">
<title>om</title>
<polygon fill="#047857" stroke="black" points="114,-86 22,-86 22,-50 114,-50 114,-86"/>
<text text-anchor="middle" x="68" y="-71" font-family="Helvetica,sans-Serif" font-size="10.00" fill="white">org&#45;mode&#45;hook</text>
<text text-anchor="middle" x="68" y="-60" font-family="Helvetica,sans-Serif" font-size="10.00" fill="white">→ install&#45;hook</text>
</g>
<!-- ash -->
<g id="node2" class="node">
<title>ash</title>
<polygon fill="#065f46" stroke="black" points="318.5,-86 224.5,-86 224.5,-50 318.5,-50 318.5,-86"/>
<text text-anchor="middle" x="271.5" y="-71" font-family="Helvetica,sans-Serif" font-size="10.00" fill="white">after&#45;save&#45;hook</text>
<text text-anchor="middle" x="271.5" y="-60" font-family="Helvetica,sans-Serif" font-size="10.00" fill="white">(buffer&#45;local)</text>
</g>
<!-- om&#45;&gt;ash -->
<g id="edge1" class="edge">
<title>om&#45;&gt;ash</title>
<path fill="none" stroke="black" d="M114.22,-68C143.72,-68 182.46,-68 213.99,-68"/>
<polygon fill="black" stroke="black" points="214.38,-71.5 224.38,-68 214.38,-64.5 214.38,-71.5"/>
<text text-anchor="middle" x="171" y="-70.8" font-family="Helvetica,sans-Serif" font-size="9.00">add&#45;hook local</text>
</g>
<!-- el -->
<g id="node3" class="node">
<title>el</title>
<polygon fill="#d1fae5" stroke="black" points="486,-120 358,-68 486,-16 614,-68 486,-120"/>
<text text-anchor="middle" x="486" y="-82" font-family="Helvetica,sans-Serif" font-size="10.00" fill="#065f46">eligible?</text>
<text text-anchor="middle" x="486" y="-71" font-family="Helvetica,sans-Serif" font-size="10.00" fill="#065f46">org&#45;mode ∧</text>
<text text-anchor="middle" x="486" y="-60" font-family="Helvetica,sans-Serif" font-size="10.00" fill="#065f46">filename=README.org</text>
<text text-anchor="middle" x="486" y="-49" font-family="Helvetica,sans-Serif" font-size="10.00" fill="#065f46">∧ NOT in&#45;progress</text>
</g>
<!-- ash&#45;&gt;el -->
<g id="edge2" class="edge">
<title>ash&#45;&gt;el</title>
<path fill="none" stroke="black" d="M318.61,-68C327.49,-68 337.21,-68 347.34,-68"/>
<polygon fill="black" stroke="black" points="347.6,-71.5 357.6,-68 347.6,-64.5 347.6,-71.5"/>
</g>
<!-- inprog -->
<g id="node4" class="node">
<title>inprog</title>
<polygon fill="#0d9488" stroke="black" points="845,-60.5 675,-60.5 675,-19.5 845,-19.5 845,-60.5"/>
<text text-anchor="middle" x="760" y="-48.5" font-family="Helvetica,sans-Serif" font-size="10.00" fill="white">set in&#45;progress=t</text>
<text text-anchor="middle" x="760" y="-37.5" font-family="Helvetica,sans-Serif" font-size="10.00" fill="white">org&#45;confirm&#45;babel&#45;evaluate=nil</text>
<text text-anchor="middle" x="760" y="-26.5" font-family="Helvetica,sans-Serif" font-size="10.00" fill="white">org&#45;babel&#45;tangle</text>
</g>
<!-- el&#45;&gt;inprog -->
<g id="edge3" class="edge">
<title>el&#45;&gt;inprog</title>
<path fill="none" stroke="black" d="M588.67,-57.53C613.6,-54.97 640.18,-52.23 664.75,-49.7"/>
<polygon fill="black" stroke="black" points="665.19,-53.18 674.78,-48.67 664.47,-46.21 665.19,-53.18"/>
<text text-anchor="middle" x="641" y="-54.8" font-family="Helvetica,sans-Serif" font-size="9.00">YES</text>
</g>
<!-- done -->
<g id="node5" class="node">
<title>done</title>
<polygon fill="#f0fdf4" stroke="black" points="1071,-87 975,-87 975,-51 1071,-51 1071,-87"/>
<text text-anchor="middle" x="1023" y="-72" font-family="Helvetica,sans-Serif" font-size="10.00" fill="#065f46">tangle complete</text>
<text text-anchor="middle" x="1023" y="-61" font-family="Helvetica,sans-Serif" font-size="10.00" fill="#065f46">.el files updated</text>
</g>
<!-- el&#45;&gt;done -->
<g id="edge4" class="edge">
<title>el&#45;&gt;done</title>
<path fill="none" stroke="black" stroke-dasharray="5,2" d="M610.65,-69.55C629.85,-69.74 649.46,-69.9 668,-70 749.78,-70.45 770.22,-70.24 852,-70 889.42,-69.89 931.47,-69.64 964.39,-69.42"/>
<polygon fill="black" stroke="black" points="964.76,-72.92 974.73,-69.35 964.71,-65.92 964.76,-72.92"/>
<text text-anchor="middle" x="760" y="-82.8" font-family="Helvetica,sans-Serif" font-size="9.00">already in&#45;progress</text>
<text text-anchor="middle" x="760" y="-72.8" font-family="Helvetica,sans-Serif" font-size="9.00">→ skip</text>
</g>
<!-- inprog&#45;&gt;done -->
<g id="edge5" class="edge">
<title>inprog&#45;&gt;done</title>
<path fill="none" stroke="black" d="M845.02,-49.34C884.08,-53.68 929.53,-58.73 964.6,-62.62"/>
<polygon fill="black" stroke="black" points="964.33,-66.11 974.66,-63.74 965.11,-59.16 964.33,-66.11"/>
</g>
<!-- cap -->
<g id="node6" class="node">
<title>cap</title>
<polygon fill="#d97706" stroke="black" points="120,-268 16,-268 16,-232 120,-232 120,-268"/>
<text text-anchor="middle" x="68" y="-253" font-family="Helvetica,sans-Serif" font-size="10.00" fill="white">org&#45;capture</text>
<text text-anchor="middle" x="68" y="-242" font-family="Helvetica,sans-Serif" font-size="10.00" fill="white">(key: b &#160;blog post)</text>
</g>
<!-- fin -->
<g id="node7" class="node">
<title>fin</title>
<polygon fill="#b45309" stroke="black" points="321,-268 222,-268 222,-232 321,-232 321,-268"/>
<text text-anchor="middle" x="271.5" y="-253" font-family="Helvetica,sans-Serif" font-size="10.00" fill="white">C&#45;c C&#45;c</text>
<text text-anchor="middle" x="271.5" y="-242" font-family="Helvetica,sans-Serif" font-size="10.00" fill="white">(finalize capture)</text>
</g>
<!-- cap&#45;&gt;fin -->
<g id="edge6" class="edge">
<title>cap&#45;&gt;fin</title>
<path fill="none" stroke="black" d="M120.11,-250C148.06,-250 182.81,-250 211.86,-250"/>
<polygon fill="black" stroke="black" points="211.88,-253.5 221.88,-250 211.88,-246.5 211.88,-253.5"/>
</g>
<!-- hook -->
<g id="node8" class="node">
<title>hook</title>
<polygon fill="#92400e" stroke="black" points="569,-268 403,-268 403,-232 569,-232 569,-268"/>
<text text-anchor="middle" x="486" y="-253" font-family="Helvetica,sans-Serif" font-size="10.00" fill="white">org&#45;capture&#45;after&#45;finalize&#45;hook</text>
<text text-anchor="middle" x="486" y="-242" font-family="Helvetica,sans-Serif" font-size="10.00" fill="white">→ orgx&#45;auto&#45;hugo&#45;&#45;maybe</text>
</g>
<!-- fin&#45;&gt;hook -->
<g id="edge7" class="edge">
<title>fin&#45;&gt;hook</title>
<path fill="none" stroke="black" d="M321.25,-250C342.47,-250 368.06,-250 392.64,-250"/>
<polygon fill="black" stroke="black" points="392.73,-253.5 402.73,-250 392.73,-246.5 392.73,-253.5"/>
</g>
<!-- ab -->
<g id="node9" class="node">
<title>ab</title>
<polygon fill="#fef3c7" stroke="black" points="760,-280 668,-250 760,-220 852,-250 760,-280"/>
<text text-anchor="middle" x="760" y="-253" font-family="Helvetica,sans-Serif" font-size="10.00" fill="#92400e">org&#45;note&#45;abort?</text>
<text text-anchor="middle" x="760" y="-242" font-family="Helvetica,sans-Serif" font-size="10.00" fill="#92400e">(C&#45;c C&#45;k abort)</text>
</g>
<!-- hook&#45;&gt;ab -->
<g id="edge8" class="edge">
<title>hook&#45;&gt;ab</title>
<path fill="none" stroke="black" d="M569.35,-250C597.18,-250 628.59,-250 657.71,-250"/>
<polygon fill="black" stroke="black" points="657.91,-253.5 667.91,-250 657.91,-246.5 657.91,-253.5"/>
</g>
<!-- bp -->
<g id="node10" class="node">
<title>bp</title>
<polygon fill="#fef3c7" stroke="black" points="1023,-249 902,-208 1023,-167 1144,-208 1023,-249"/>
<text text-anchor="middle" x="1023" y="-216.5" font-family="Helvetica,sans-Serif" font-size="10.00" fill="#92400e">blog&#45;capture&#45;p?</text>
<text text-anchor="middle" x="1023" y="-205.5" font-family="Helvetica,sans-Serif" font-size="10.00" fill="#92400e">detect target file</text>
<text text-anchor="middle" x="1023" y="-194.5" font-family="Helvetica,sans-Serif" font-size="10.00" fill="#92400e">my:f:capture&#45;blog&#45;file</text>
</g>
<!-- ab&#45;&gt;bp -->
<g id="edge10" class="edge">
<title>ab&#45;&gt;bp</title>
<path fill="none" stroke="black" d="M822.19,-240.15C854.42,-234.97 894.59,-228.5 930.45,-222.73"/>
<polygon fill="black" stroke="black" points="931.12,-226.17 940.43,-221.13 930,-219.26 931.12,-226.17"/>
<text text-anchor="middle" x="877" y="-233.8" font-family="Helvetica,sans-Serif" font-size="9.00">NO</text>
</g>
<!-- skip2 -->
<g id="node12" class="node">
<title>skip2</title>
<polygon fill="#f1f5f9" stroke="black" points="1354,-288 1283,-288 1283,-252 1354,-252 1354,-288"/>
<text text-anchor="middle" x="1318.5" y="-267.5" font-family="Helvetica,sans-Serif" font-size="10.00" fill="#334155">skip export</text>
</g>
<!-- ab&#45;&gt;skip2 -->
<g id="edge9" class="edge">
<title>ab&#45;&gt;skip2</title>
<path fill="none" stroke="black" d="M837.82,-254.75C858.64,-255.93 881.18,-257.11 902,-258 1036.79,-263.77 1196.31,-267.51 1272.55,-269.11"/>
<polygon fill="black" stroke="black" points="1272.67,-272.61 1282.74,-269.32 1272.82,-265.62 1272.67,-272.61"/>
<text text-anchor="middle" x="1023" y="-267.8" font-family="Helvetica,sans-Serif" font-size="9.00">YES (aborted)</text>
</g>
<!-- exp -->
<g id="node11" class="node">
<title>exp</title>
<polygon fill="#0d9488" stroke="black" points="1395,-226 1242,-226 1242,-190 1395,-190 1395,-226"/>
<text text-anchor="middle" x="1318.5" y="-211" font-family="Helvetica,sans-Serif" font-size="10.00" fill="white">org&#45;hugo&#45;export&#45;wim&#45;to&#45;md</text>
<text text-anchor="middle" x="1318.5" y="-200" font-family="Helvetica,sans-Serif" font-size="10.00" fill="white">:all&#45;subtrees</text>
</g>
<!-- bp&#45;&gt;exp -->
<g id="edge11" class="edge">
<title>bp&#45;&gt;exp</title>
<path fill="none" stroke="black" d="M1144.22,-208C1173.42,-208 1204.07,-208 1231.33,-208"/>
<polygon fill="black" stroke="black" points="1231.61,-211.5 1241.61,-208 1231.61,-204.5 1231.61,-211.5"/>
<text text-anchor="middle" x="1193" y="-210.8" font-family="Helvetica,sans-Serif" font-size="9.00">YES</text>
</g>
<!-- bp&#45;&gt;skip2 -->
<g id="edge12" class="edge">
<title>bp&#45;&gt;skip2</title>
<path fill="none" stroke="black" d="M1098.06,-223.65C1153.16,-235.28 1226.55,-250.79 1272.92,-260.58"/>
<polygon fill="black" stroke="black" points="1272.45,-264.06 1282.96,-262.7 1273.9,-257.21 1272.45,-264.06"/>
<text text-anchor="middle" x="1193" y="-251.8" font-family="Helvetica,sans-Serif" font-size="9.00">NO (not blog)</text>
</g>
</g>
</svg>
