<?xml version="1.0" encoding="UTF-8" standalone="no"?>
<!DOCTYPE svg PUBLIC "-//W3C//DTD SVG 1.1//EN"
 "http://www.w3.org/Graphics/SVG/1.1/DTD/svg11.dtd">
<!-- Generated by graphviz version 2.43.0 (0)
 -->
<!-- Title: leader_keys Pages: 1 -->
<svg width="237pt" height="1016pt"
 viewBox="0.00 0.00 237.00 1016.00" xmlns="http://www.w3.org/2000/svg" xmlns:xlink="http://www.w3.org/1999/xlink">
<g id="graph0" class="graph" transform="scale(1 1) rotate(0) translate(4 1012)">
<title>leader_keys</title>
<!-- root -->
<g id="node1" class="node">
<title>root</title>
<polygon fill="#0d1b2a" stroke="black" stroke-width="2" points="80.5,-522 2.5,-522 2.5,-486 80.5,-486 80.5,-522"/>
<text text-anchor="middle" x="41.5" y="-506.8" font-family="Helvetica,sans-Serif" font-size="9.00" fill="#14b8a6">M&#45;SPC</text>
<text text-anchor="middle" x="41.5" y="-496.8" font-family="Helvetica,sans-Serif" font-size="9.00" fill="#14b8a6">ui&#45;leader&#45;map</text>
</g>
<!-- dc1 -->
<g id="node3" class="node">
<title>dc1</title>
<polygon fill="#047857" stroke="black" points="229,-1008 119,-1008 119,-972 229,-972 229,-1008"/>
<text text-anchor="middle" x="174" y="-987.8" font-family="Helvetica,sans-Serif" font-size="9.00" fill="white">RET → consult&#45;buffer</text>
</g>
<!-- root&#45;&gt;dc1 -->
<g id="edge1" class="edge">
<title>root&#45;&gt;dc1</title>
<path fill="none" stroke="black" d="M75.94,-522.29C78.67,-524.9 81.11,-527.8 83,-531 131.95,-613.97 64.99,-883.23 119,-963 119.35,-963.52 119.71,-964.02 120.08,-964.52"/>
<polygon fill="black" stroke="black" points="117.62,-967 127.07,-971.78 122.66,-962.15 117.62,-967"/>
</g>
<!-- dc2 -->
<g id="node4" class="node">
<title>dc2</title>
<polygon fill="#047857" stroke="black" points="216.5,-954 131.5,-954 131.5,-918 216.5,-918 216.5,-954"/>
<text text-anchor="middle" x="174" y="-933.8" font-family="Helvetica,sans-Serif" font-size="9.00" fill="white">/ → consult&#45;line</text>
</g>
<!-- root&#45;&gt;dc2 -->
<g id="edge2" class="edge">
<title>root&#45;&gt;dc2</title>
<path fill="none" stroke="black" d="M75.9,-522.32C78.64,-524.92 81.09,-527.81 83,-531 169.6,-675.84 23.56,-769.82 119,-909 120.32,-910.93 121.83,-912.73 123.47,-914.41"/>
<polygon fill="black" stroke="black" points="121.5,-917.32 131.44,-921 125.96,-911.93 121.5,-917.32"/>
</g>
<!-- dc3 -->
<g id="node5" class="node">
<title>dc3</title>
<polygon fill="#0369a1" stroke="black" points="221,-900 127,-900 127,-864 221,-864 221,-900"/>
<text text-anchor="middle" x="174" y="-879.8" font-family="Helvetica,sans-Serif" font-size="9.00" fill="white">. → other&#45;window</text>
</g>
<!-- root&#45;&gt;dc3 -->
<g id="edge3" class="edge">
<title>root&#45;&gt;dc3</title>
<path fill="none" stroke="black" d="M75.84,-522.35C78.6,-524.94 81.07,-527.82 83,-531 158.33,-654.77 36.13,-736.15 119,-855 119.36,-855.51 119.72,-856.01 120.1,-856.5"/>
<polygon fill="black" stroke="black" points="117.67,-859.02 127.17,-863.72 122.67,-854.12 117.67,-859.02"/>
</g>
<!-- dc4 -->
<g id="node6" class="node">
<title>dc4</title>
<polygon fill="#0369a1" stroke="black" points="208,-846 140,-846 140,-810 208,-810 208,-846"/>
<text text-anchor="middle" x="174" y="-825.8" font-family="Helvetica,sans-Serif" font-size="9.00" fill="white">f → find&#45;file</text>
</g>
<!-- root&#45;&gt;dc4 -->
<g id="edge4" class="edge">
<title>root&#45;&gt;dc4</title>
<path fill="none" stroke="black" d="M75.39,-522.04C78.32,-524.72 80.94,-527.7 83,-531 147.07,-633.72 48.67,-702.46 119,-801 122.23,-805.53 126.45,-809.35 131.11,-812.55"/>
<polygon fill="black" stroke="black" points="129.44,-815.62 139.83,-817.66 132.98,-809.58 129.44,-815.62"/>
</g>
<!-- dc5 -->
<g id="node7" class="node">
<title>dc5</title>
<polygon fill="#ef4444" stroke="black" points="212.5,-792 135.5,-792 135.5,-756 212.5,-756 212.5,-792"/>
<text text-anchor="middle" x="174" y="-771.8" font-family="Helvetica,sans-Serif" font-size="9.00" fill="white">k → kill&#45;buffer</text>
</g>
<!-- root&#45;&gt;dc5 -->
<g id="edge5" class="edge">
<title>root&#45;&gt;dc5</title>
<path fill="none" stroke="black" d="M75.29,-522.11C78.23,-524.77 80.89,-527.74 83,-531 135.84,-612.73 61.18,-668.71 119,-747 121.25,-750.05 123.94,-752.77 126.9,-755.2"/>
<polygon fill="black" stroke="black" points="125.04,-758.17 135.26,-760.98 129.02,-752.41 125.04,-758.17"/>
</g>
<!-- dc6 -->
<g id="node8" class="node">
<title>dc6</title>
<polygon fill="#8b5cf6" stroke="black" points="227.5,-738 120.5,-738 120.5,-702 227.5,-702 227.5,-738"/>
<text text-anchor="middle" x="174" y="-717.8" font-family="Helvetica,sans-Serif" font-size="9.00" fill="white">z → text&#45;scale hydra</text>
</g>
<!-- root&#45;&gt;dc6 -->
<g id="edge6" class="edge">
<title>root&#45;&gt;dc6</title>
<path fill="none" stroke="black" d="M75.11,-522.22C78.09,-524.87 80.8,-527.79 83,-531 124.69,-591.84 73.61,-634.86 119,-693 119.48,-693.62 119.99,-694.23 120.5,-694.82"/>
<polygon fill="black" stroke="black" points="118.34,-697.59 128.05,-701.83 123.11,-692.46 118.34,-697.59"/>
</g>
<!-- b -->
<g id="node10" class="node">
<title>b</title>
<polygon fill="#1d4ed8" stroke="black" points="204,-684 144,-684 144,-648 204,-648 204,-684"/>
<text text-anchor="middle" x="174" y="-663.8" font-family="Helvetica,sans-Serif" font-size="9.00" fill="white">b &#160;buffers</text>
</g>
<!-- root&#45;&gt;b -->
<g id="edge7" class="edge">
<title>root&#45;&gt;b</title>
<path fill="none" stroke="black" d="M74.39,-522.12C77.58,-524.81 80.54,-527.78 83,-531 113.71,-571.21 85.85,-600.78 119,-639 123.33,-643.99 128.79,-648.16 134.58,-651.61"/>
<polygon fill="black" stroke="black" points="133.33,-654.9 143.81,-656.45 136.58,-648.71 133.33,-654.9"/>
</g>
<!-- w -->
<g id="node11" class="node">
<title>w</title>
<polygon fill="#1d4ed8" stroke="black" points="208.5,-630 139.5,-630 139.5,-594 208.5,-594 208.5,-630"/>
<text text-anchor="middle" x="174" y="-609.8" font-family="Helvetica,sans-Serif" font-size="9.00" fill="white">w &#160;windows</text>
</g>
<!-- root&#45;&gt;w -->
<g id="edge8" class="edge">
<title>root&#45;&gt;w</title>
<path fill="none" stroke="black" d="M72.75,-522.19C76.38,-524.93 79.89,-527.89 83,-531 103.4,-551.4 97.38,-565.91 119,-585 122.45,-588.05 126.31,-590.84 130.33,-593.39"/>
<polygon fill="black" stroke="black" points="128.9,-596.6 139.31,-598.55 132.38,-590.53 128.9,-596.6"/>
</g>
<!-- p -->
<g id="node12" class="node">
<title>p</title>
<polygon fill="#1d4ed8" stroke="black" points="206.5,-576 141.5,-576 141.5,-540 206.5,-540 206.5,-576"/>
<text text-anchor="middle" x="174" y="-555.8" font-family="Helvetica,sans-Serif" font-size="9.00" fill="white">p &#160;projects</text>
</g>
<!-- root&#45;&gt;p -->
<g id="edge9" class="edge">
<title>root&#45;&gt;p</title>
<path fill="none" stroke="black" d="M80.6,-519.76C96.7,-526.43 115.48,-534.2 131.89,-540.99"/>
<polygon fill="black" stroke="black" points="130.66,-544.27 141.24,-544.86 133.34,-537.8 130.66,-544.27"/>
</g>
<!-- s -->
<g id="node13" class="node">
<title>s</title>
<polygon fill="#047857" stroke="black" points="202.5,-522 145.5,-522 145.5,-486 202.5,-486 202.5,-522"/>
<text text-anchor="middle" x="174" y="-501.8" font-family="Helvetica,sans-Serif" font-size="9.00" fill="white">s &#160;search</text>
</g>
<!-- root&#45;&gt;s -->
<g id="edge10" class="edge">
<title>root&#45;&gt;s</title>
<path fill="none" stroke="black" d="M80.6,-504C97.79,-504 118.05,-504 135.21,-504"/>
<polygon fill="black" stroke="black" points="135.44,-507.5 145.44,-504 135.44,-500.5 135.44,-507.5"/>
</g>
<!-- g -->
<g id="node14" class="node">
<title>g</title>
<polygon fill="#92400e" stroke="black" points="206.5,-468 141.5,-468 141.5,-432 206.5,-432 206.5,-468"/>
<text text-anchor="middle" x="174" y="-447.8" font-family="Helvetica,sans-Serif" font-size="9.00" fill="white">g &#160;git / vcs</text>
</g>
<!-- root&#45;&gt;g -->
<g id="edge11" class="edge">
<title>root&#45;&gt;g</title>
<path fill="none" stroke="black" d="M80.6,-488.24C96.7,-481.57 115.48,-473.8 131.89,-467.01"/>
<polygon fill="black" stroke="black" points="133.34,-470.2 141.24,-463.14 130.66,-463.73 133.34,-470.2"/>
</g>
<!-- c -->
<g id="node15" class="node">
<title>c</title>
<polygon fill="#9d174d" stroke="black" points="201,-414 147,-414 147,-378 201,-378 201,-414"/>
<text text-anchor="middle" x="174" y="-393.8" font-family="Helvetica,sans-Serif" font-size="9.00" fill="white">c &#160;code</text>
</g>
<!-- root&#45;&gt;c -->
<g id="edge12" class="edge">
<title>root&#45;&gt;c</title>
<path fill="none" stroke="black" d="M56.49,-485.82C70.78,-468.14 94.31,-441.34 119,-423 124.71,-418.76 131.19,-414.87 137.62,-411.44"/>
<polygon fill="black" stroke="black" points="139.57,-414.38 146.93,-406.77 136.42,-408.13 139.57,-414.38"/>
</g>
<!-- e -->
<g id="node16" class="node">
<title>e</title>
<polygon fill="#ef4444" stroke="black" points="201,-360 147,-360 147,-324 201,-324 201,-360"/>
<text text-anchor="middle" x="174" y="-339.8" font-family="Helvetica,sans-Serif" font-size="9.00" fill="white">e &#160;errors</text>
</g>
<!-- root&#45;&gt;e -->
<g id="edge13" class="edge">
<title>root&#45;&gt;e</title>
<path fill="none" stroke="black" d="M48.89,-485.61C59.52,-457.34 83.25,-402.94 119,-369 124.44,-363.84 131.05,-359.46 137.75,-355.82"/>
<polygon fill="black" stroke="black" points="139.44,-358.89 146.86,-351.31 136.34,-352.61 139.44,-358.89"/>
</g>
<!-- t -->
<g id="node17" class="node">
<title>t</title>
<polygon fill="#0369a1" stroke="black" points="203.5,-306 144.5,-306 144.5,-270 203.5,-270 203.5,-306"/>
<text text-anchor="middle" x="174" y="-285.8" font-family="Helvetica,sans-Serif" font-size="9.00" fill="white">t &#160;toggles</text>
</g>
<!-- root&#45;&gt;t -->
<g id="edge14" class="edge">
<title>root&#45;&gt;t</title>
<path fill="none" stroke="black" d="M45.43,-485.84C52.19,-449.25 72.04,-365.83 119,-315 123.64,-309.98 129.41,-305.77 135.44,-302.28"/>
<polygon fill="black" stroke="black" points="137.09,-305.37 144.37,-297.67 133.88,-299.15 137.09,-305.37"/>
</g>
<!-- o -->
<g id="node18" class="node">
<title>o</title>
<polygon fill="#3f6212" stroke="black" points="208.5,-252 139.5,-252 139.5,-216 208.5,-216 208.5,-252"/>
<text text-anchor="middle" x="174" y="-231.8" font-family="Helvetica,sans-Serif" font-size="9.00" fill="white">o &#160;org/roam</text>
</g>
<!-- root&#45;&gt;o -->
<g id="edge15" class="edge">
<title>root&#45;&gt;o</title>
<path fill="none" stroke="black" d="M43.49,-485.85C46.78,-442.09 60.74,-329.32 119,-261 122.23,-257.21 126.12,-253.9 130.32,-251.02"/>
<polygon fill="black" stroke="black" points="132.45,-253.82 139.24,-245.69 128.86,-247.81 132.45,-253.82"/>
</g>
<!-- m -->
<g id="node19" class="node">
<title>m</title>
<polygon fill="#6b21a8" stroke="black" points="214,-198 134,-198 134,-162 214,-162 214,-198"/>
<text text-anchor="middle" x="174" y="-177.8" font-family="Helvetica,sans-Serif" font-size="9.00" fill="white">m &#160;local mode</text>
</g>
<!-- root&#45;&gt;m -->
<g id="edge16" class="edge">
<title>root&#45;&gt;m</title>
<path fill="none" stroke="black" d="M42.22,-485.68C42.4,-435.37 49.39,-293.14 119,-207 120.88,-204.67 123.02,-202.52 125.33,-200.55"/>
<polygon fill="black" stroke="black" points="127.68,-203.17 133.73,-194.48 123.58,-197.5 127.68,-203.17"/>
</g>
<!-- a -->
<g id="node20" class="node">
<title>a</title>
<polygon fill="#0f766e" stroke="black" points="201,-144 147,-144 147,-108 201,-108 201,-144"/>
<text text-anchor="middle" x="174" y="-123.8" font-family="Helvetica,sans-Serif" font-size="9.00" fill="white">a &#160;apps</text>
</g>
<!-- root&#45;&gt;a -->
<g id="edge17" class="edge">
<title>root&#45;&gt;a</title>
<path fill="none" stroke="black" d="M44.39,-485.76C51.38,-421.48 77.46,-206.42 119,-153 123.93,-146.66 130.75,-141.69 137.88,-137.85"/>
<polygon fill="black" stroke="black" points="139.42,-141 146.97,-133.56 136.43,-134.66 139.42,-141"/>
</g>
<!-- q -->
<g id="node21" class="node">
<title>q</title>
<polygon fill="#475569" stroke="black" points="215,-90 133,-90 133,-54 215,-54 215,-90"/>
<text text-anchor="middle" x="174" y="-69.8" font-family="Helvetica,sans-Serif" font-size="9.00" fill="white">q &#160;quit/session</text>
</g>
<!-- root&#45;&gt;q -->
<g id="edge18" class="edge">
<title>root&#45;&gt;q</title>
<path fill="none" stroke="black" d="M43.8,-485.95C49.16,-415.77 71.56,-161.81 119,-99 120.63,-96.84 122.48,-94.84 124.49,-93"/>
<polygon fill="black" stroke="black" points="127.07,-95.43 132.9,-86.59 122.83,-89.86 127.07,-95.43"/>
</g>
<!-- h -->
<g id="node22" class="node">
<title>h</title>
<polygon fill="#f59e0b" stroke="black" points="201,-36 147,-36 147,0 201,0 201,-36"/>
<text text-anchor="middle" x="174" y="-15.8" font-family="Helvetica,sans-Serif" font-size="9.00" fill="white">h &#160;help</text>
</g>
<!-- root&#45;&gt;h -->
<g id="edge19" class="edge">
<title>root&#45;&gt;h</title>
<path fill="none" stroke="black" d="M43.36,-485.94C47.28,-409.99 65.66,-117.21 119,-45 123.77,-38.54 130.53,-33.53 137.65,-29.67"/>
<polygon fill="black" stroke="black" points="139.19,-32.82 146.75,-25.39 136.21,-26.48 139.19,-32.82"/>
</g>
<!-- commands -->
<g id="node2" class="node">
<title>commands</title>
<polygon fill="lightgrey" stroke="transparent" points="82.5,-550 0.5,-550 0.5,-540 82.5,-540 82.5,-550"/>
<text text-anchor="middle" x="41.5" y="-542.8" font-family="Helvetica,sans-Serif" font-size="9.00" fill="#475569">Direct Commands</text>
</g>
<!-- submaps -->
<g id="node9" class="node">
<title>submaps</title>
<polygon fill="lightgrey" stroke="transparent" points="83,-578 0,-578 0,-568 83,-568 83,-578"/>
<text text-anchor="middle" x="41.5" y="-570.8" font-family="Helvetica,sans-Serif" font-size="9.00" fill="#475569">Sub&#45;maps (prefix)</text>
</g>
</g>
</svg>
